<?xml version="1.0" encoding="UTF-8"?>
<svg xmlns="http://www.w3.org/2000/svg" xmlns:xlink="http://www.w3.org/1999/xlink" width="854" height="480" viewBox="0 0 854 480">
<defs>
<g>
<g id="glyph-0-0">
<path d="M 1.113281 -2.570312 C 1.113281 -1.753906 1.273438 -1.148438 1.59375 -0.757812 C 1.917969 -0.367188 2.3125 -0.171875 2.78125 -0.171875 C 3.238281 -0.171875 3.628906 -0.363281 3.957031 -0.742188 C 4.28125 -1.125 4.441406 -1.734375 4.441406 -2.570312 C 4.441406 -3.417969 4.277344 -4.03125 3.949219 -4.410156 C 3.621094 -4.785156 3.230469 -4.976562 2.78125 -4.976562 C 2.3125 -4.976562 1.917969 -4.777344 1.597656 -4.386719 C 1.273438 -3.996094 1.113281 -3.390625 1.113281 -2.570312 Z M 0.230469 -2.570312 C 0.230469 -3.402344 0.492188 -4.066406 1.015625 -4.570312 C 1.492188 -5.027344 2.082031 -5.253906 2.78125 -5.253906 C 3.46875 -5.253906 4.054688 -5.027344 4.535156 -4.574219 C 5.0625 -4.078125 5.328125 -3.410156 5.328125 -2.570312 C 5.328125 -1.90625 5.160156 -1.347656 4.824219 -0.886719 C 4.457031 -0.394531 3.941406 -0.0820312 3.273438 0.046875 C 3.585938 0.5 3.96875 0.820312 4.414062 1.011719 C 4.664062 1.117188 5 1.195312 5.425781 1.246094 L 5.425781 1.386719 L 5.109375 1.386719 C 4.6875 1.386719 4.316406 1.351562 3.988281 1.285156 C 3.664062 1.214844 3.367188 1.113281 3.101562 0.972656 C 2.835938 0.835938 2.589844 0.644531 2.363281 0.402344 C 2.136719 0.160156 2.011719 0.03125 1.984375 0.0195312 L 1.886719 -0.0273438 C 1.457031 -0.226562 1.125 -0.453125 0.886719 -0.710938 C 0.449219 -1.183594 0.230469 -1.804688 0.230469 -2.570312 Z "/>
</g>
<g id="glyph-0-1">
<rect x="0" y="0" width="0" height="0" mask="url(#mask-0)"/>
</g>
<g id="glyph-0-2">
<path d="M 4.160156 -1.445312 L 4.160156 -0.914062 L 0.230469 -0.914062 L 0.230469 -1.445312 Z M 4.160156 -3.015625 L 4.160156 -2.484375 L 0.230469 -2.484375 L 0.230469 -3.015625 Z "/>
</g>
<g id="glyph-0-3">
<path d="M 3.617188 -3.410156 C 3.464844 -3.390625 3.351562 -3.367188 3.277344 -3.335938 C 3.203125 -3.300781 3.167969 -3.234375 3.167969 -3.136719 C 3.167969 -3.082031 3.175781 -3.027344 3.191406 -2.972656 C 3.207031 -2.914062 3.230469 -2.847656 3.257812 -2.773438 L 3.949219 -0.96875 L 4.625 -2.617188 C 4.65625 -2.6875 4.6875 -2.78125 4.722656 -2.894531 C 4.757812 -3.011719 4.777344 -3.097656 4.777344 -3.15625 C 4.777344 -3.25 4.75 -3.3125 4.691406 -3.34375 C 4.632812 -3.378906 4.546875 -3.402344 4.433594 -3.417969 L 4.433594 -3.527344 L 5.398438 -3.527344 L 5.398438 -3.417969 C 5.335938 -3.40625 5.285156 -3.375 5.246094 -3.328125 C 5.203125 -3.277344 5.148438 -3.164062 5.074219 -2.984375 L 3.859375 0.0117188 C 3.847656 0.0351562 3.839844 0.0507812 3.832031 0.0625 C 3.824219 0.0703125 3.8125 0.0742188 3.796875 0.0742188 C 3.765625 0.0585938 3.75 0.046875 3.746094 0.0390625 L 2.886719 -2.085938 L 1.886719 0.03125 C 1.882812 0.0429688 1.875 0.0546875 1.867188 0.0625 C 1.859375 0.0703125 1.847656 0.0742188 1.835938 0.0742188 C 1.804688 0.0585938 1.785156 0.046875 1.78125 0.0390625 L 0.644531 -2.761719 C 0.519531 -3.066406 0.4375 -3.246094 0.398438 -3.300781 C 0.359375 -3.355469 0.277344 -3.390625 0.160156 -3.410156 L 0.160156 -3.527344 L 1.566406 -3.527344 L 1.566406 -3.410156 C 1.449219 -3.398438 1.359375 -3.378906 1.296875 -3.347656 C 1.234375 -3.316406 1.203125 -3.25 1.203125 -3.144531 C 1.203125 -3.070312 1.253906 -2.890625 1.359375 -2.605469 C 1.421875 -2.441406 1.496094 -2.242188 1.589844 -2.003906 L 2.023438 -0.925781 L 2.707031 -2.390625 L 2.714844 -2.4375 C 2.714844 -2.488281 2.6875 -2.582031 2.632812 -2.722656 C 2.578125 -2.859375 2.527344 -2.980469 2.476562 -3.089844 C 2.425781 -3.203125 2.367188 -3.285156 2.304688 -3.328125 C 2.238281 -3.371094 2.148438 -3.398438 2.03125 -3.410156 L 2.03125 -3.527344 L 3.617188 -3.527344 Z "/>
</g>
<g id="glyph-0-4">
<path d="M 1.859375 -0.140625 C 2.234375 -0.140625 2.488281 -0.34375 2.628906 -0.75 C 2.765625 -1.160156 2.835938 -1.75 2.835938 -2.523438 C 2.835938 -3.136719 2.796875 -3.628906 2.710938 -3.996094 C 2.554688 -4.679688 2.261719 -5.019531 1.832031 -5.019531 C 1.402344 -5.019531 1.105469 -4.667969 0.945312 -3.964844 C 0.863281 -3.589844 0.820312 -3.097656 0.820312 -2.484375 C 0.820312 -1.910156 0.863281 -1.449219 0.949219 -1.105469 C 1.113281 -0.460938 1.414062 -0.140625 1.859375 -0.140625 Z M 1.847656 -5.226562 C 2.429688 -5.226562 2.882812 -4.921875 3.207031 -4.308594 C 3.460938 -3.816406 3.589844 -3.25 3.589844 -2.609375 C 3.589844 -2.105469 3.511719 -1.628906 3.351562 -1.183594 C 3.054688 -0.347656 2.542969 0.0703125 1.816406 0.0703125 C 1.316406 0.0703125 0.90625 -0.15625 0.585938 -0.609375 C 0.242188 -1.089844 0.0664062 -1.75 0.0664062 -2.578125 C 0.0664062 -3.230469 0.183594 -3.792969 0.414062 -4.265625 C 0.726562 -4.90625 1.203125 -5.226562 1.847656 -5.226562 Z "/>
</g>
<g id="glyph-0-5">
<path d="M 0.511719 -2.976562 C 0.511719 -3.160156 0.640625 -3.277344 0.894531 -3.335938 C 1.300781 -3.421875 1.601562 -3.53125 1.800781 -3.660156 C 1.601562 -3.78125 1.296875 -3.890625 0.886719 -4 C 0.636719 -4.0625 0.511719 -4.171875 0.511719 -4.324219 C 0.511719 -4.410156 0.539062 -4.480469 0.59375 -4.527344 C 0.644531 -4.574219 0.707031 -4.597656 0.777344 -4.597656 C 0.882812 -4.597656 1.015625 -4.503906 1.179688 -4.3125 C 1.34375 -4.121094 1.570312 -3.941406 1.851562 -3.777344 L 1.851562 -3.878906 C 1.851562 -4.089844 1.820312 -4.296875 1.753906 -4.507812 C 1.6875 -4.71875 1.652344 -4.867188 1.652344 -4.953125 C 1.652344 -5.050781 1.679688 -5.125 1.734375 -5.179688 C 1.789062 -5.230469 1.851562 -5.253906 1.929688 -5.253906 C 2.019531 -5.253906 2.085938 -5.226562 2.132812 -5.167969 C 2.179688 -5.109375 2.203125 -5.035156 2.203125 -4.949219 C 2.203125 -4.890625 2.167969 -4.753906 2.097656 -4.535156 C 2.027344 -4.320312 1.992188 -4.0625 1.996094 -3.757812 C 2.203125 -3.910156 2.332031 -4.003906 2.378906 -4.042969 C 2.421875 -4.078125 2.476562 -4.132812 2.539062 -4.203125 C 2.722656 -4.40625 2.835938 -4.523438 2.878906 -4.558594 C 2.925781 -4.59375 2.984375 -4.609375 3.066406 -4.609375 C 3.140625 -4.609375 3.203125 -4.582031 3.257812 -4.527344 C 3.308594 -4.472656 3.335938 -4.402344 3.335938 -4.324219 C 3.335938 -4.164062 3.21875 -4.0625 2.992188 -4.015625 C 2.613281 -3.933594 2.300781 -3.8125 2.058594 -3.652344 L 2.121094 -3.617188 C 2.320312 -3.496094 2.617188 -3.398438 3.003906 -3.320312 C 3.226562 -3.273438 3.339844 -3.164062 3.339844 -2.988281 C 3.339844 -2.894531 3.304688 -2.824219 3.238281 -2.78125 C 3.171875 -2.738281 3.109375 -2.714844 3.046875 -2.714844 C 2.941406 -2.714844 2.796875 -2.824219 2.613281 -3.042969 C 2.429688 -3.261719 2.242188 -3.421875 2.050781 -3.515625 L 1.996094 -3.542969 L 1.996094 -3.488281 C 1.996094 -3.191406 2.035156 -2.941406 2.105469 -2.742188 C 2.179688 -2.542969 2.214844 -2.421875 2.214844 -2.378906 C 2.214844 -2.292969 2.183594 -2.21875 2.128906 -2.15625 C 2.070312 -2.089844 1.996094 -2.058594 1.90625 -2.058594 C 1.824219 -2.058594 1.757812 -2.089844 1.707031 -2.148438 C 1.660156 -2.210938 1.636719 -2.285156 1.636719 -2.371094 C 1.636719 -2.394531 1.679688 -2.550781 1.765625 -2.847656 C 1.851562 -3.140625 1.882812 -3.355469 1.851562 -3.488281 L 1.84375 -3.542969 C 1.628906 -3.425781 1.425781 -3.257812 1.238281 -3.046875 C 1.050781 -2.832031 0.898438 -2.726562 0.78125 -2.726562 C 0.691406 -2.726562 0.625 -2.753906 0.578125 -2.804688 C 0.535156 -2.859375 0.511719 -2.917969 0.511719 -2.976562 Z "/>
</g>
<g id="glyph-0-6">
<path d="M 0.0859375 -0.140625 C 0.371094 -0.171875 0.558594 -0.222656 0.644531 -0.292969 C 0.730469 -0.367188 0.769531 -0.550781 0.769531 -0.84375 L 0.769531 -4.300781 C 0.769531 -4.578125 0.730469 -4.757812 0.644531 -4.84375 C 0.5625 -4.929688 0.375 -4.980469 0.0859375 -5 L 0.0859375 -5.144531 L 2.285156 -5.144531 L 2.285156 -5 C 2 -4.984375 1.808594 -4.9375 1.710938 -4.859375 C 1.613281 -4.78125 1.566406 -4.613281 1.566406 -4.355469 L 1.566406 -0.617188 C 1.566406 -0.53125 1.578125 -0.464844 1.609375 -0.414062 C 1.636719 -0.367188 1.703125 -0.335938 1.800781 -0.324219 C 1.859375 -0.316406 1.917969 -0.308594 1.984375 -0.308594 C 2.046875 -0.304688 2.167969 -0.304688 2.347656 -0.304688 C 3.039062 -0.304688 3.503906 -0.359375 3.75 -0.476562 C 3.992188 -0.589844 4.226562 -0.878906 4.453125 -1.347656 L 4.652344 -1.347656 L 4.273438 0 L 0.0859375 0 Z "/>
</g>
<g id="glyph-0-7">
<path d="M 1.742188 -5.253906 L 2.121094 -5.253906 L 0.402344 0.128906 L 0.015625 0.128906 Z "/>
</g>
<g id="glyph-0-8">
<path d="M 1.546875 -2.660156 C 2.105469 -2.683594 2.503906 -2.742188 2.746094 -2.835938 C 3.160156 -3.007812 3.363281 -3.324219 3.363281 -3.792969 C 3.363281 -4.242188 3.179688 -4.550781 2.808594 -4.714844 C 2.613281 -4.804688 2.351562 -4.847656 2.023438 -4.847656 C 1.804688 -4.847656 1.667969 -4.832031 1.621094 -4.800781 C 1.570312 -4.769531 1.546875 -4.695312 1.546875 -4.578125 Z M 0.0859375 -0.140625 C 0.386719 -0.167969 0.570312 -0.226562 0.644531 -0.316406 C 0.71875 -0.402344 0.753906 -0.609375 0.753906 -0.933594 L 0.753906 -4.300781 C 0.753906 -4.574219 0.714844 -4.753906 0.632812 -4.839844 C 0.550781 -4.925781 0.367188 -4.980469 0.0859375 -5 L 0.0859375 -5.144531 L 2.242188 -5.144531 C 2.6875 -5.144531 3.0625 -5.089844 3.359375 -4.976562 C 3.925781 -4.761719 4.210938 -4.363281 4.210938 -3.785156 C 4.210938 -3.398438 4.085938 -3.101562 3.832031 -2.894531 C 3.582031 -2.6875 3.238281 -2.550781 2.804688 -2.484375 L 4.410156 -0.511719 C 4.507812 -0.390625 4.605469 -0.300781 4.707031 -0.246094 C 4.804688 -0.191406 4.929688 -0.15625 5.085938 -0.140625 L 5.085938 0 L 3.832031 0 L 1.976562 -2.390625 L 1.546875 -2.375 L 1.546875 -0.84375 C 1.546875 -0.554688 1.589844 -0.371094 1.675781 -0.292969 C 1.765625 -0.214844 1.953125 -0.164062 2.25 -0.140625 L 2.25 0 L 0.0859375 0 Z "/>
</g>
<g id="glyph-0-9">
<path d="M 3.488281 -5.144531 L 3.488281 -5.019531 L 1.84375 0.0703125 L 1.339844 0.0703125 L 2.878906 -4.570312 L 1.222656 -4.570312 C 0.976562 -4.570312 0.800781 -4.53125 0.691406 -4.449219 C 0.585938 -4.371094 0.449219 -4.199219 0.285156 -3.941406 L 0.152344 -4.003906 C 0.316406 -4.40625 0.417969 -4.65625 0.457031 -4.753906 C 0.496094 -4.847656 0.546875 -4.980469 0.613281 -5.144531 Z "/>
</g>
<g id="glyph-0-10">
<path d="M 1.269531 0.0898438 C 1.148438 0.0898438 1.042969 0.046875 0.960938 -0.0351562 C 0.878906 -0.121094 0.835938 -0.222656 0.835938 -0.339844 C 0.835938 -0.460938 0.878906 -0.5625 0.960938 -0.644531 C 1.046875 -0.730469 1.148438 -0.769531 1.269531 -0.769531 C 1.386719 -0.769531 1.488281 -0.730469 1.570312 -0.644531 C 1.65625 -0.5625 1.699219 -0.460938 1.699219 -0.339844 C 1.699219 -0.222656 1.65625 -0.121094 1.574219 -0.0351562 C 1.492188 0.0507812 1.390625 0.0898438 1.269531 0.0898438 Z "/>
</g>
<g id="glyph-0-11">
<path d="M 2.300781 -5.21875 C 2.3125 -5.207031 2.316406 -5.195312 2.320312 -5.1875 C 2.320312 -5.183594 2.320312 -5.167969 2.320312 -5.144531 L 2.320312 -0.574219 C 2.320312 -0.378906 2.371094 -0.253906 2.476562 -0.203125 C 2.578125 -0.148438 2.773438 -0.117188 3.058594 -0.105469 L 3.058594 0 L 0.914062 0 L 0.914062 -0.113281 C 1.222656 -0.128906 1.421875 -0.171875 1.515625 -0.238281 C 1.609375 -0.308594 1.65625 -0.457031 1.65625 -0.683594 L 1.65625 -4.199219 C 1.65625 -4.320312 1.640625 -4.414062 1.609375 -4.476562 C 1.578125 -4.539062 1.515625 -4.570312 1.414062 -4.570312 C 1.347656 -4.570312 1.261719 -4.554688 1.15625 -4.515625 C 1.050781 -4.480469 0.953125 -4.441406 0.863281 -4.402344 L 0.863281 -4.507812 L 2.253906 -5.21875 Z "/>
</g>
</g>
<image id="source-231" x="0" y="0" width="0" height="0"/>
<mask id="mask-0">
<use xlink:href="#source-231"/>
</mask>
</defs>
<g fill="rgb(36.078431%, 81.568627%, 70.196078%)" fill-opacity="1">
<use xlink:href="#glyph-0-0" x="30" y="25.833008"/>
<use xlink:href="#glyph-0-1" x="36" y="25.833008"/>
<use xlink:href="#glyph-0-2" x="38" y="25.833008"/>
<use xlink:href="#glyph-0-1" x="42" y="25.833008"/>
<use xlink:href="#glyph-0-3" x="44" y="25.833008"/>
<use xlink:href="#glyph-0-4" x="50" y="25.833008"/>
<use xlink:href="#glyph-0-5" x="54" y="25.833008"/>
<use xlink:href="#glyph-0-6" x="58" y="25.833008"/>
<use xlink:href="#glyph-0-7" x="63" y="25.833008"/>
<use xlink:href="#glyph-0-8" x="65" y="25.833008"/>
<use xlink:href="#glyph-0-1" x="70" y="25.833008"/>
<use xlink:href="#glyph-0-2" x="72" y="25.833008"/>
<use xlink:href="#glyph-0-1" x="76" y="25.833008"/>
<use xlink:href="#glyph-0-9" x="78" y="25.833008"/>
<use xlink:href="#glyph-0-10" x="82" y="25.833008"/>
<use xlink:href="#glyph-0-11" x="84" y="25.833008"/>
</g>
</svg>
