<?xml version="1.0" encoding="UTF-8"?>
<svg xmlns="http://www.w3.org/2000/svg" xmlns:xlink="http://www.w3.org/1999/xlink" width="854" height="480" viewBox="0 0 854 480">
<defs>
<g>
<g id="glyph-0-0">
<path d="M 0.390625 -2.570312 L 2.847656 -2.570312 L 2.847656 -1.945312 L 0.390625 -1.945312 Z "/>
</g>
<g id="glyph-0-1">
<path d="M 0.113281 -0.179688 C 0.480469 -0.21875 0.71875 -0.285156 0.828125 -0.378906 C 0.9375 -0.472656 0.992188 -0.707031 0.992188 -1.085938 L 0.992188 -5.53125 C 0.992188 -5.886719 0.9375 -6.117188 0.828125 -6.226562 C 0.722656 -6.335938 0.484375 -6.40625 0.113281 -6.429688 L 0.113281 -6.617188 L 2.9375 -6.617188 L 2.9375 -6.429688 C 2.570312 -6.410156 2.324219 -6.351562 2.199219 -6.25 C 2.074219 -6.148438 2.011719 -5.933594 2.011719 -5.601562 L 2.011719 -0.796875 C 2.011719 -0.6875 2.03125 -0.597656 2.066406 -0.535156 C 2.105469 -0.472656 2.1875 -0.429688 2.3125 -0.414062 C 2.390625 -0.40625 2.46875 -0.398438 2.550781 -0.394531 C 2.632812 -0.390625 2.789062 -0.390625 3.015625 -0.390625 C 3.90625 -0.390625 4.507812 -0.464844 4.820312 -0.609375 C 5.132812 -0.757812 5.433594 -1.132812 5.726562 -1.734375 L 5.980469 -1.734375 L 5.492188 0 L 0.113281 0 Z "/>
</g>
<g id="glyph-0-2">
<path d="M 0.0859375 -4.394531 L 0.0859375 -5.136719 L 5.53125 -2.660156 L 5.53125 -2.390625 L 0.0859375 0.0820312 L 0.0859375 -0.660156 L 4.222656 -2.535156 Z "/>
</g>
</g>
</defs>
<g fill="rgb(96.862745%, 85.098039%, 43.529412%)" fill-opacity="1">
<use xlink:href="#glyph-0-0" x="30" y="27.5"/>
<use xlink:href="#glyph-0-0" x="33" y="27.5"/>
<use xlink:href="#glyph-0-1" x="36" y="27.5"/>
<use xlink:href="#glyph-0-0" x="42" y="27.5"/>
<use xlink:href="#glyph-0-0" x="45" y="27.5"/>
<use xlink:href="#glyph-0-2" x="48" y="27.5"/>
</g>
</svg>
