<?xml version="1.0" encoding="UTF-8"?>
<svg xmlns="http://www.w3.org/2000/svg" xmlns:xlink="http://www.w3.org/1999/xlink" width="854" height="480" viewBox="0 0 854 480">
<defs>
<g>
<g id="glyph-0-0">
<path d="M 0.0546875 -0.0898438 C 0.253906 -0.109375 0.375 -0.148438 0.421875 -0.199219 C 0.472656 -0.25 0.496094 -0.382812 0.496094 -0.601562 L 0.496094 -2.765625 C 0.496094 -2.945312 0.46875 -3.058594 0.414062 -3.113281 C 0.359375 -3.167969 0.242188 -3.203125 0.0546875 -3.214844 L 0.0546875 -3.308594 L 2.71875 -3.308594 L 2.738281 -2.589844 L 2.597656 -2.589844 C 2.5625 -2.820312 2.5 -2.964844 2.40625 -3.027344 C 2.3125 -3.085938 2.125 -3.117188 1.84375 -3.117188 L 1.164062 -3.117188 C 1.097656 -3.117188 1.050781 -3.105469 1.035156 -3.082031 C 1.015625 -3.058594 1.007812 -3.015625 1.007812 -2.949219 L 1.007812 -1.832031 L 1.726562 -1.832031 C 1.941406 -1.832031 2.078125 -1.867188 2.136719 -1.929688 C 2.195312 -1.992188 2.242188 -2.121094 2.277344 -2.3125 L 2.394531 -2.3125 L 2.394531 -1.15625 L 2.277344 -1.15625 C 2.242188 -1.351562 2.191406 -1.480469 2.132812 -1.542969 C 2.074219 -1.605469 1.941406 -1.636719 1.726562 -1.636719 L 1.007812 -1.636719 L 1.007812 -0.542969 C 1.007812 -0.359375 1.035156 -0.242188 1.089844 -0.1875 C 1.144531 -0.136719 1.269531 -0.105469 1.457031 -0.0898438 L 1.457031 0 L 0.0546875 0 Z "/>
</g>
<g id="glyph-0-1">
<path d="M 0.0234375 -0.0820312 C 0.171875 -0.09375 0.269531 -0.121094 0.320312 -0.160156 C 0.367188 -0.199219 0.394531 -0.285156 0.394531 -0.414062 L 0.394531 -1.515625 C 0.394531 -1.675781 0.378906 -1.792969 0.347656 -1.863281 C 0.316406 -1.929688 0.261719 -1.964844 0.183594 -1.964844 C 0.167969 -1.964844 0.144531 -1.964844 0.117188 -1.960938 C 0.0898438 -1.957031 0.0625 -1.949219 0.0351562 -1.945312 L 0.0351562 -2.023438 C 0.128906 -2.054688 0.222656 -2.089844 0.320312 -2.125 C 0.417969 -2.160156 0.484375 -2.183594 0.523438 -2.195312 C 0.605469 -2.226562 0.6875 -2.261719 0.773438 -2.300781 C 0.785156 -2.300781 0.792969 -2.296875 0.792969 -2.289062 C 0.796875 -2.28125 0.796875 -2.265625 0.796875 -2.238281 L 0.796875 -1.839844 C 0.902344 -1.984375 1.003906 -2.097656 1.101562 -2.179688 C 1.195312 -2.257812 1.296875 -2.300781 1.402344 -2.300781 C 1.484375 -2.300781 1.550781 -2.273438 1.605469 -2.226562 C 1.65625 -2.175781 1.683594 -2.113281 1.683594 -2.039062 C 1.683594 -1.972656 1.664062 -1.914062 1.621094 -1.871094 C 1.582031 -1.824219 1.53125 -1.800781 1.472656 -1.800781 C 1.410156 -1.800781 1.347656 -1.832031 1.285156 -1.886719 C 1.222656 -1.945312 1.171875 -1.972656 1.136719 -1.972656 C 1.082031 -1.972656 1.011719 -1.925781 0.929688 -1.835938 C 0.84375 -1.742188 0.804688 -1.648438 0.804688 -1.550781 L 0.804688 -0.449219 C 0.804688 -0.308594 0.835938 -0.210938 0.902344 -0.15625 C 0.964844 -0.101562 1.074219 -0.078125 1.226562 -0.0820312 L 1.226562 0 L 0.0234375 0 Z "/>
</g>
<g id="glyph-0-2">
<path d="M 1.144531 -2.289062 C 1.375 -2.289062 1.574219 -2.210938 1.75 -2.050781 C 1.921875 -1.894531 2.007812 -1.667969 2.007812 -1.375 L 0.457031 -1.375 C 0.472656 -1 0.558594 -0.722656 0.710938 -0.550781 C 0.867188 -0.378906 1.050781 -0.292969 1.261719 -0.292969 C 1.433594 -0.292969 1.578125 -0.335938 1.695312 -0.425781 C 1.8125 -0.515625 1.917969 -0.644531 2.019531 -0.808594 L 2.105469 -0.777344 C 2.039062 -0.570312 1.914062 -0.382812 1.730469 -0.203125 C 1.546875 -0.0273438 1.324219 0.0585938 1.058594 0.0585938 C 0.75 0.0585938 0.515625 -0.0585938 0.347656 -0.289062 C 0.179688 -0.519531 0.0976562 -0.785156 0.0976562 -1.085938 C 0.0976562 -1.414062 0.195312 -1.695312 0.386719 -1.933594 C 0.582031 -2.171875 0.835938 -2.289062 1.144531 -2.289062 Z M 1.003906 -2.113281 C 0.816406 -2.113281 0.675781 -2.03125 0.578125 -1.867188 C 0.527344 -1.777344 0.488281 -1.667969 0.464844 -1.53125 L 1.496094 -1.53125 C 1.476562 -1.695312 1.449219 -1.816406 1.402344 -1.898438 C 1.324219 -2.039062 1.191406 -2.113281 1.003906 -2.113281 Z "/>
</g>
<g id="glyph-0-3">
<path d="M 1.191406 -0.261719 C 1.230469 -0.261719 1.28125 -0.269531 1.347656 -0.28125 C 1.414062 -0.292969 1.476562 -0.316406 1.53125 -0.347656 C 1.609375 -0.390625 1.660156 -0.425781 1.675781 -0.460938 C 1.691406 -0.492188 1.699219 -0.550781 1.699219 -0.640625 L 1.699219 -1.671875 C 1.699219 -1.800781 1.679688 -1.902344 1.640625 -1.972656 C 1.566406 -2.101562 1.429688 -2.167969 1.226562 -2.167969 C 0.996094 -2.167969 0.824219 -2.074219 0.714844 -1.882812 C 0.605469 -1.691406 0.550781 -1.472656 0.550781 -1.226562 C 0.550781 -0.9375 0.605469 -0.703125 0.714844 -0.527344 C 0.828125 -0.351562 0.984375 -0.261719 1.191406 -0.261719 Z M 1.246094 -2.300781 C 1.359375 -2.300781 1.457031 -2.285156 1.539062 -2.257812 C 1.597656 -2.238281 1.683594 -2.195312 1.800781 -2.128906 L 2.070312 -2.289062 C 2.085938 -2.296875 2.097656 -2.300781 2.105469 -2.300781 C 2.113281 -2.296875 2.117188 -2.289062 2.117188 -2.289062 C 2.121094 -2.285156 2.121094 -2.273438 2.121094 -2.257812 L 2.121094 0.710938 C 2.121094 0.796875 2.136719 0.863281 2.167969 0.90625 C 2.214844 0.96875 2.304688 1.007812 2.441406 1.019531 L 2.441406 1.089844 L 1.257812 1.089844 L 1.257812 1.007812 C 1.402344 1.007812 1.511719 0.980469 1.582031 0.933594 C 1.652344 0.886719 1.6875 0.78125 1.6875 0.621094 L 1.6875 -0.308594 C 1.574219 -0.195312 1.476562 -0.117188 1.394531 -0.0703125 C 1.257812 0.0117188 1.101562 0.0507812 0.933594 0.0507812 C 0.730469 0.0507812 0.542969 -0.0429688 0.375 -0.230469 C 0.203125 -0.417969 0.121094 -0.695312 0.121094 -1.058594 C 0.121094 -1.394531 0.222656 -1.6875 0.433594 -1.933594 C 0.640625 -2.179688 0.914062 -2.300781 1.246094 -2.300781 Z "/>
</g>
<g id="glyph-0-4">
<path d="M 0.773438 -2.261719 L 0.773438 -0.699219 C 0.773438 -0.585938 0.789062 -0.5 0.820312 -0.433594 C 0.878906 -0.308594 0.992188 -0.246094 1.152344 -0.246094 C 1.261719 -0.246094 1.371094 -0.28125 1.476562 -0.355469 C 1.539062 -0.398438 1.597656 -0.453125 1.660156 -0.523438 L 1.660156 -1.863281 C 1.660156 -1.988281 1.636719 -2.070312 1.585938 -2.109375 C 1.539062 -2.148438 1.441406 -2.171875 1.292969 -2.179688 L 1.292969 -2.261719 L 2.082031 -2.261719 L 2.082031 -0.542969 C 2.082031 -0.429688 2.101562 -0.355469 2.140625 -0.3125 C 2.179688 -0.273438 2.265625 -0.253906 2.394531 -0.257812 L 2.394531 -0.191406 C 2.304688 -0.167969 2.238281 -0.148438 2.195312 -0.136719 C 2.15625 -0.125 2.085938 -0.101562 1.984375 -0.0703125 C 1.941406 -0.0546875 1.851562 -0.0195312 1.707031 0.0351562 C 1.699219 0.0351562 1.695312 0.03125 1.691406 0.0273438 C 1.691406 0.0195312 1.6875 0.0078125 1.6875 0 L 1.6875 -0.394531 C 1.578125 -0.261719 1.476562 -0.164062 1.386719 -0.101562 C 1.25 -0.00390625 1.101562 0.046875 0.945312 0.046875 C 0.804688 0.046875 0.671875 -0.00390625 0.546875 -0.105469 C 0.421875 -0.203125 0.355469 -0.371094 0.355469 -0.605469 L 0.355469 -1.871094 C 0.355469 -2.003906 0.328125 -2.089844 0.273438 -2.132812 C 0.238281 -2.160156 0.160156 -2.179688 0.0429688 -2.191406 L 0.0429688 -2.261719 Z "/>
</g>
<g id="glyph-0-5">
<path d="M 0.0898438 -0.0703125 C 0.207031 -0.0820312 0.285156 -0.113281 0.332031 -0.15625 C 0.378906 -0.199219 0.402344 -0.292969 0.402344 -0.445312 L 0.402344 -1.683594 C 0.402344 -1.785156 0.394531 -1.859375 0.375 -1.902344 C 0.34375 -1.964844 0.277344 -1.996094 0.183594 -1.996094 C 0.167969 -1.996094 0.152344 -1.992188 0.136719 -1.992188 C 0.121094 -1.992188 0.101562 -1.988281 0.0820312 -1.984375 L 0.0820312 -2.070312 C 0.148438 -2.089844 0.304688 -2.140625 0.554688 -2.222656 L 0.785156 -2.296875 C 0.796875 -2.296875 0.800781 -2.292969 0.804688 -2.285156 C 0.808594 -2.277344 0.808594 -2.265625 0.808594 -2.25 L 0.808594 -1.890625 C 0.957031 -2.03125 1.074219 -2.128906 1.160156 -2.179688 C 1.285156 -2.257812 1.417969 -2.300781 1.554688 -2.300781 C 1.664062 -2.300781 1.765625 -2.269531 1.859375 -2.203125 C 2.035156 -2.082031 2.121094 -1.859375 2.121094 -1.542969 L 2.121094 -0.402344 C 2.121094 -0.285156 2.144531 -0.199219 2.191406 -0.148438 C 2.238281 -0.0976562 2.320312 -0.0703125 2.429688 -0.0703125 L 2.429688 0 L 1.386719 0 L 1.386719 -0.0703125 C 1.503906 -0.0859375 1.589844 -0.117188 1.636719 -0.167969 C 1.683594 -0.21875 1.707031 -0.324219 1.707031 -0.492188 L 1.707031 -1.53125 C 1.707031 -1.671875 1.679688 -1.789062 1.628906 -1.882812 C 1.578125 -1.972656 1.480469 -2.019531 1.339844 -2.019531 C 1.242188 -2.019531 1.148438 -1.988281 1.046875 -1.921875 C 0.992188 -1.882812 0.921875 -1.820312 0.832031 -1.734375 L 0.832031 -0.367188 C 0.832031 -0.25 0.859375 -0.171875 0.910156 -0.132812 C 0.960938 -0.09375 1.046875 -0.0703125 1.15625 -0.0703125 L 1.15625 0 L 0.0898438 0 Z "/>
</g>
<g id="glyph-0-6">
<path d="M 1.242188 -2.300781 C 1.445312 -2.300781 1.621094 -2.25 1.769531 -2.144531 C 1.917969 -2.039062 1.988281 -1.925781 1.988281 -1.800781 C 1.988281 -1.746094 1.972656 -1.695312 1.933594 -1.648438 C 1.894531 -1.601562 1.839844 -1.578125 1.761719 -1.578125 C 1.703125 -1.578125 1.652344 -1.597656 1.609375 -1.636719 C 1.566406 -1.675781 1.535156 -1.734375 1.515625 -1.808594 L 1.488281 -1.925781 C 1.464844 -2.011719 1.429688 -2.074219 1.375 -2.109375 C 1.324219 -2.144531 1.253906 -2.160156 1.164062 -2.160156 C 0.980469 -2.160156 0.824219 -2.078125 0.695312 -1.917969 C 0.566406 -1.757812 0.503906 -1.539062 0.503906 -1.273438 C 0.503906 -1.027344 0.574219 -0.804688 0.714844 -0.609375 C 0.855469 -0.414062 1.046875 -0.316406 1.285156 -0.316406 C 1.453125 -0.316406 1.605469 -0.371094 1.734375 -0.484375 C 1.808594 -0.546875 1.894531 -0.648438 1.988281 -0.785156 L 2.058594 -0.746094 C 1.964844 -0.550781 1.867188 -0.394531 1.765625 -0.28125 C 1.570312 -0.0625 1.339844 0.046875 1.082031 0.046875 C 0.828125 0.046875 0.601562 -0.0546875 0.40625 -0.253906 C 0.210938 -0.453125 0.113281 -0.726562 0.113281 -1.070312 C 0.113281 -1.40625 0.222656 -1.695312 0.433594 -1.9375 C 0.648438 -2.179688 0.917969 -2.300781 1.242188 -2.300781 Z "/>
</g>
<g id="glyph-0-7">
<path d="M 0.0703125 -2.242188 L 1.097656 -2.242188 L 1.097656 -2.167969 C 1.015625 -2.167969 0.957031 -2.160156 0.917969 -2.144531 C 0.84375 -2.125 0.804688 -2.082031 0.804688 -2.023438 C 0.804688 -2 0.808594 -1.976562 0.816406 -1.953125 C 0.824219 -1.929688 0.839844 -1.894531 0.863281 -1.84375 L 1.433594 -0.578125 L 1.890625 -1.855469 C 1.898438 -1.867188 1.90625 -1.898438 1.914062 -1.945312 C 1.925781 -1.988281 1.929688 -2.019531 1.929688 -2.035156 C 1.929688 -2.078125 1.917969 -2.109375 1.886719 -2.128906 C 1.859375 -2.148438 1.820312 -2.160156 1.773438 -2.164062 L 1.699219 -2.167969 L 1.699219 -2.242188 L 2.371094 -2.242188 L 2.371094 -2.167969 C 2.304688 -2.160156 2.253906 -2.136719 2.21875 -2.101562 C 2.1875 -2.0625 2.15625 -2.011719 2.132812 -1.945312 L 1.363281 0.09375 C 1.230469 0.445312 1.101562 0.699219 0.980469 0.855469 C 0.859375 1.015625 0.703125 1.09375 0.515625 1.09375 C 0.425781 1.09375 0.339844 1.070312 0.261719 1.023438 C 0.179688 0.980469 0.140625 0.90625 0.140625 0.808594 C 0.140625 0.742188 0.164062 0.691406 0.214844 0.648438 C 0.261719 0.605469 0.320312 0.585938 0.394531 0.585938 C 0.4375 0.585938 0.5 0.601562 0.585938 0.632812 C 0.667969 0.664062 0.726562 0.679688 0.765625 0.679688 C 0.855469 0.679688 0.953125 0.574219 1.050781 0.359375 C 1.152344 0.148438 1.203125 0.0078125 1.203125 -0.0625 C 1.203125 -0.078125 1.203125 -0.0976562 1.195312 -0.117188 C 1.191406 -0.136719 1.1875 -0.15625 1.179688 -0.171875 L 0.398438 -1.863281 C 0.34375 -1.984375 0.292969 -2.0625 0.253906 -2.101562 C 0.210938 -2.140625 0.148438 -2.164062 0.0703125 -2.175781 Z "/>
</g>
<g id="glyph-0-8">
<rect x="0" y="0" width="0" height="0" mask="url(#mask-0)"/>
</g>
<g id="glyph-0-9">
<path d="M 0.230469 -1.253906 C 0.230469 -1.820312 0.398438 -2.320312 0.738281 -2.746094 C 0.945312 -3.007812 1.191406 -3.21875 1.476562 -3.378906 L 1.519531 -3.296875 C 1.257812 -3.089844 1.070312 -2.886719 0.960938 -2.691406 C 0.761719 -2.347656 0.664062 -1.890625 0.664062 -1.320312 C 0.664062 -0.894531 0.703125 -0.546875 0.777344 -0.269531 C 0.910156 0.210938 1.15625 0.570312 1.519531 0.8125 L 1.457031 0.890625 C 1.257812 0.796875 1.039062 0.605469 0.808594 0.328125 C 0.421875 -0.136719 0.230469 -0.664062 0.230469 -1.253906 Z "/>
</g>
<g id="glyph-0-10">
<path d="M 0.0820312 -0.0898438 C 0.277344 -0.109375 0.398438 -0.148438 0.445312 -0.199219 C 0.496094 -0.25 0.519531 -0.382812 0.519531 -0.601562 L 0.519531 -2.765625 C 0.519531 -2.945312 0.492188 -3.0625 0.4375 -3.117188 C 0.382812 -3.167969 0.265625 -3.203125 0.0820312 -3.214844 L 0.0820312 -3.308594 L 1.46875 -3.308594 L 1.46875 -3.214844 C 1.285156 -3.203125 1.167969 -3.167969 1.109375 -3.117188 C 1.054688 -3.0625 1.027344 -2.945312 1.027344 -2.765625 L 1.027344 -1.792969 L 2.542969 -1.792969 L 2.542969 -2.765625 C 2.542969 -2.945312 2.515625 -3.0625 2.464844 -3.117188 C 2.410156 -3.167969 2.289062 -3.203125 2.105469 -3.214844 L 2.105469 -3.308594 L 3.492188 -3.308594 L 3.492188 -3.214844 C 3.308594 -3.203125 3.191406 -3.167969 3.136719 -3.117188 C 3.082031 -3.0625 3.054688 -2.945312 3.054688 -2.765625 L 3.054688 -0.542969 C 3.054688 -0.359375 3.082031 -0.242188 3.136719 -0.191406 C 3.191406 -0.140625 3.308594 -0.105469 3.492188 -0.0898438 L 3.492188 0 L 2.105469 0 L 2.105469 -0.0898438 C 2.300781 -0.109375 2.425781 -0.144531 2.472656 -0.199219 C 2.519531 -0.25 2.542969 -0.382812 2.542969 -0.601562 L 2.542969 -1.570312 L 1.027344 -1.570312 L 1.027344 -0.542969 C 1.027344 -0.359375 1.054688 -0.242188 1.109375 -0.191406 C 1.164062 -0.140625 1.285156 -0.105469 1.46875 -0.0898438 L 1.46875 0 L 0.0820312 0 Z "/>
</g>
<g id="glyph-0-11">
<path d="M 2.023438 -2.242188 L 2.023438 -2.183594 L 0.667969 -0.152344 L 1.359375 -0.152344 C 1.597656 -0.152344 1.75 -0.183594 1.8125 -0.246094 C 1.875 -0.304688 1.941406 -0.457031 2 -0.695312 L 2.085938 -0.675781 L 2.019531 0 L 0.125 0 L 0.125 -0.0546875 L 1.460938 -2.09375 L 0.808594 -2.09375 C 0.632812 -2.09375 0.515625 -2.066406 0.464844 -2.003906 C 0.410156 -1.945312 0.371094 -1.828125 0.351562 -1.652344 L 0.265625 -1.652344 L 0.277344 -2.242188 Z "/>
</g>
<g id="glyph-0-12">
<path d="M 1.421875 -1.230469 C 1.421875 -0.988281 1.390625 -0.757812 1.328125 -0.542969 C 1.265625 -0.324219 1.171875 -0.121094 1.050781 0.0703125 C 0.921875 0.277344 0.75 0.46875 0.535156 0.644531 C 0.394531 0.761719 0.273438 0.84375 0.179688 0.890625 L 0.132812 0.8125 C 0.382812 0.621094 0.566406 0.425781 0.679688 0.226562 C 0.886719 -0.125 0.988281 -0.589844 0.988281 -1.167969 C 0.988281 -1.632812 0.941406 -2.015625 0.847656 -2.3125 C 0.714844 -2.730469 0.476562 -3.058594 0.132812 -3.296875 L 0.195312 -3.378906 C 0.453125 -3.234375 0.691406 -3.019531 0.914062 -2.730469 C 1.253906 -2.285156 1.421875 -1.785156 1.421875 -1.230469 Z "/>
</g>
</g>
<image id="source-142" x="0" y="0" width="0" height="0"/>
<mask id="mask-0">
<use xlink:href="#source-142"/>
</mask>
</defs>
<g fill="rgb(100%, 100%, 100%)" fill-opacity="1">
<use xlink:href="#glyph-0-0" x="30" y="23.75"/>
<use xlink:href="#glyph-0-1" x="33" y="23.75"/>
<use xlink:href="#glyph-0-2" x="35" y="23.75"/>
<use xlink:href="#glyph-0-3" x="37" y="23.75"/>
<use xlink:href="#glyph-0-4" x="40" y="23.75"/>
<use xlink:href="#glyph-0-2" x="43" y="23.75"/>
<use xlink:href="#glyph-0-5" x="45" y="23.75"/>
<use xlink:href="#glyph-0-6" x="48" y="23.75"/>
<use xlink:href="#glyph-0-7" x="50" y="23.75"/>
<use xlink:href="#glyph-0-8" x="53" y="23.75"/>
<use xlink:href="#glyph-0-9" x="54" y="23.75"/>
<use xlink:href="#glyph-0-10" x="56" y="23.75"/>
<use xlink:href="#glyph-0-11" x="60" y="23.75"/>
<use xlink:href="#glyph-0-12" x="62" y="23.75"/>
</g>
</svg>
