<?xml version="1.0" encoding="UTF-8"?>
<svg xmlns="http://www.w3.org/2000/svg" xmlns:xlink="http://www.w3.org/1999/xlink" width="854" height="480" viewBox="0 0 854 480">
<defs>
<g>
<g id="glyph-0-0">
<path d="M 0.320312 -1.007812 C 0.40625 -0.78125 0.507812 -0.601562 0.621094 -0.46875 C 0.820312 -0.234375 1.066406 -0.121094 1.359375 -0.121094 C 1.519531 -0.121094 1.65625 -0.171875 1.773438 -0.269531 C 1.890625 -0.371094 1.949219 -0.511719 1.949219 -0.695312 C 1.949219 -0.855469 1.890625 -0.996094 1.773438 -1.117188 C 1.695312 -1.195312 1.535156 -1.308594 1.289062 -1.460938 L 0.863281 -1.726562 C 0.734375 -1.808594 0.628906 -1.890625 0.554688 -1.976562 C 0.414062 -2.132812 0.34375 -2.308594 0.34375 -2.496094 C 0.34375 -2.75 0.425781 -2.960938 0.59375 -3.128906 C 0.761719 -3.296875 0.984375 -3.378906 1.257812 -3.378906 C 1.375 -3.378906 1.511719 -3.351562 1.671875 -3.292969 C 1.832031 -3.238281 1.921875 -3.210938 1.945312 -3.210938 C 2.007812 -3.210938 2.050781 -3.226562 2.074219 -3.253906 C 2.097656 -3.285156 2.117188 -3.324219 2.128906 -3.378906 L 2.230469 -3.378906 L 2.339844 -2.3125 L 2.222656 -2.3125 C 2.140625 -2.632812 2.007812 -2.859375 1.828125 -2.984375 C 1.648438 -3.113281 1.472656 -3.175781 1.296875 -3.175781 C 1.160156 -3.175781 1.039062 -3.136719 0.9375 -3.054688 C 0.835938 -2.976562 0.785156 -2.863281 0.785156 -2.71875 C 0.785156 -2.589844 0.824219 -2.480469 0.902344 -2.390625 C 0.980469 -2.296875 1.101562 -2.199219 1.265625 -2.101562 L 1.707031 -1.828125 C 1.980469 -1.660156 2.175781 -1.503906 2.289062 -1.363281 C 2.398438 -1.21875 2.453125 -1.050781 2.453125 -0.855469 C 2.453125 -0.59375 2.355469 -0.375 2.15625 -0.199219 C 1.960938 -0.0234375 1.707031 0.0664062 1.398438 0.0664062 C 1.242188 0.0664062 1.082031 0.0351562 0.914062 -0.0234375 C 0.746094 -0.0820312 0.648438 -0.109375 0.625 -0.109375 C 0.566406 -0.109375 0.527344 -0.09375 0.507812 -0.0546875 C 0.488281 -0.0195312 0.472656 0.0195312 0.464844 0.0585938 L 0.355469 0.0585938 L 0.207031 -1.007812 Z "/>
</g>
<g id="glyph-0-1">
<path d="M 0.410156 -3.152344 C 0.410156 -3.222656 0.433594 -3.28125 0.484375 -3.332031 C 0.53125 -3.382812 0.59375 -3.40625 0.664062 -3.40625 C 0.734375 -3.40625 0.792969 -3.382812 0.84375 -3.332031 C 0.894531 -3.285156 0.917969 -3.222656 0.917969 -3.152344 C 0.917969 -3.082031 0.894531 -3.023438 0.84375 -2.972656 C 0.792969 -2.921875 0.734375 -2.898438 0.664062 -2.898438 C 0.59375 -2.898438 0.53125 -2.921875 0.484375 -2.972656 C 0.433594 -3.023438 0.410156 -3.082031 0.410156 -3.152344 Z M 0.0976562 -0.0703125 C 0.273438 -0.0859375 0.382812 -0.113281 0.425781 -0.15625 C 0.472656 -0.199219 0.496094 -0.316406 0.496094 -0.507812 L 0.496094 -1.671875 C 0.496094 -1.777344 0.488281 -1.851562 0.472656 -1.890625 C 0.449219 -1.957031 0.398438 -1.992188 0.320312 -1.992188 C 0.300781 -1.992188 0.285156 -1.992188 0.265625 -1.988281 C 0.25 -1.984375 0.199219 -1.972656 0.121094 -1.949219 L 0.121094 -2.023438 L 0.226562 -2.058594 C 0.511719 -2.152344 0.707031 -2.222656 0.820312 -2.269531 C 0.867188 -2.289062 0.894531 -2.296875 0.90625 -2.296875 C 0.910156 -2.285156 0.914062 -2.273438 0.914062 -2.261719 L 0.914062 -0.507812 C 0.914062 -0.320312 0.933594 -0.207031 0.980469 -0.160156 C 1.023438 -0.113281 1.125 -0.0820312 1.285156 -0.0703125 L 1.285156 0 L 0.0976562 0 Z "/>
</g>
<g id="glyph-0-2">
<path d="M 0.0898438 -0.0703125 C 0.207031 -0.0820312 0.285156 -0.113281 0.332031 -0.15625 C 0.378906 -0.199219 0.402344 -0.292969 0.402344 -0.445312 L 0.402344 -1.683594 C 0.402344 -1.785156 0.394531 -1.859375 0.375 -1.902344 C 0.34375 -1.964844 0.277344 -1.996094 0.183594 -1.996094 C 0.167969 -1.996094 0.152344 -1.992188 0.136719 -1.992188 C 0.121094 -1.992188 0.101562 -1.988281 0.0820312 -1.984375 L 0.0820312 -2.070312 C 0.148438 -2.089844 0.304688 -2.140625 0.554688 -2.222656 L 0.785156 -2.296875 C 0.796875 -2.296875 0.800781 -2.292969 0.804688 -2.285156 C 0.808594 -2.277344 0.808594 -2.265625 0.808594 -2.25 L 0.808594 -1.890625 C 0.957031 -2.03125 1.074219 -2.128906 1.160156 -2.179688 C 1.285156 -2.257812 1.417969 -2.300781 1.554688 -2.300781 C 1.664062 -2.300781 1.765625 -2.269531 1.859375 -2.203125 C 2.035156 -2.082031 2.121094 -1.859375 2.121094 -1.542969 L 2.121094 -0.402344 C 2.121094 -0.285156 2.144531 -0.199219 2.191406 -0.148438 C 2.238281 -0.0976562 2.320312 -0.0703125 2.429688 -0.0703125 L 2.429688 0 L 1.386719 0 L 1.386719 -0.0703125 C 1.503906 -0.0859375 1.589844 -0.117188 1.636719 -0.167969 C 1.683594 -0.21875 1.707031 -0.324219 1.707031 -0.492188 L 1.707031 -1.53125 C 1.707031 -1.671875 1.679688 -1.789062 1.628906 -1.882812 C 1.578125 -1.972656 1.480469 -2.019531 1.339844 -2.019531 C 1.242188 -2.019531 1.148438 -1.988281 1.046875 -1.921875 C 0.992188 -1.882812 0.921875 -1.820312 0.832031 -1.734375 L 0.832031 -0.367188 C 0.832031 -0.25 0.859375 -0.171875 0.910156 -0.132812 C 0.960938 -0.09375 1.046875 -0.0703125 1.15625 -0.0703125 L 1.15625 0 L 0.0898438 0 Z "/>
</g>
<g id="glyph-0-3">
<path d="M 1.144531 -2.289062 C 1.375 -2.289062 1.574219 -2.210938 1.75 -2.050781 C 1.921875 -1.894531 2.007812 -1.667969 2.007812 -1.375 L 0.457031 -1.375 C 0.472656 -1 0.558594 -0.722656 0.710938 -0.550781 C 0.867188 -0.378906 1.050781 -0.292969 1.261719 -0.292969 C 1.433594 -0.292969 1.578125 -0.335938 1.695312 -0.425781 C 1.8125 -0.515625 1.917969 -0.644531 2.019531 -0.808594 L 2.105469 -0.777344 C 2.039062 -0.570312 1.914062 -0.382812 1.730469 -0.203125 C 1.546875 -0.0273438 1.324219 0.0585938 1.058594 0.0585938 C 0.75 0.0585938 0.515625 -0.0585938 0.347656 -0.289062 C 0.179688 -0.519531 0.0976562 -0.785156 0.0976562 -1.085938 C 0.0976562 -1.414062 0.195312 -1.695312 0.386719 -1.933594 C 0.582031 -2.171875 0.835938 -2.289062 1.144531 -2.289062 Z M 1.003906 -2.113281 C 0.816406 -2.113281 0.675781 -2.03125 0.578125 -1.867188 C 0.527344 -1.777344 0.488281 -1.667969 0.464844 -1.53125 L 1.496094 -1.53125 C 1.476562 -1.695312 1.449219 -1.816406 1.402344 -1.898438 C 1.324219 -2.039062 1.191406 -2.113281 1.003906 -2.113281 Z "/>
</g>
<g id="glyph-0-4">
<rect x="0" y="0" width="0" height="0" mask="url(#mask-0)"/>
</g>
<g id="glyph-0-5">
<path d="M 1.246094 -3.308594 L 1.246094 -3.214844 C 1.148438 -3.210938 1.078125 -3.203125 1.035156 -3.1875 C 0.960938 -3.160156 0.921875 -3.109375 0.921875 -3.039062 C 0.921875 -3.003906 0.925781 -2.972656 0.9375 -2.941406 C 0.945312 -2.910156 0.957031 -2.871094 0.976562 -2.820312 L 1.699219 -0.941406 L 2.230469 -2.351562 L 1.996094 -2.957031 C 1.953125 -3.066406 1.882812 -3.140625 1.796875 -3.179688 C 1.746094 -3.203125 1.664062 -3.214844 1.558594 -3.214844 L 1.558594 -3.308594 L 2.898438 -3.308594 L 2.898438 -3.214844 C 2.773438 -3.214844 2.6875 -3.203125 2.640625 -3.1875 C 2.566406 -3.160156 2.527344 -3.105469 2.527344 -3.015625 C 2.527344 -2.988281 2.53125 -2.960938 2.535156 -2.941406 C 2.542969 -2.917969 2.558594 -2.875 2.585938 -2.804688 L 3.308594 -0.929688 L 3.933594 -2.625 C 3.96875 -2.722656 3.992188 -2.808594 4.007812 -2.882812 C 4.015625 -2.925781 4.019531 -2.960938 4.019531 -2.984375 C 4.019531 -3.078125 3.976562 -3.144531 3.886719 -3.179688 C 3.835938 -3.199219 3.765625 -3.210938 3.667969 -3.214844 L 3.667969 -3.308594 L 4.65625 -3.308594 L 4.65625 -3.214844 C 4.566406 -3.203125 4.5 -3.183594 4.453125 -3.15625 C 4.367188 -3.109375 4.304688 -3.027344 4.261719 -2.910156 L 3.730469 -1.421875 L 3.523438 -0.851562 L 3.222656 0.0585938 L 3.148438 0.0585938 L 2.945312 -0.519531 L 2.347656 -2.058594 L 1.578125 0.0585938 L 1.503906 0.0585938 L 1.144531 -0.980469 L 0.714844 -2.152344 C 0.539062 -2.632812 0.414062 -2.929688 0.34375 -3.039062 C 0.277344 -3.148438 0.167969 -3.207031 0.0234375 -3.214844 L 0.0234375 -3.308594 Z "/>
</g>
<g id="glyph-0-6">
<path d="M 1.433594 -1.351562 C 1.246094 -1.289062 1.089844 -1.222656 0.96875 -1.148438 C 0.734375 -1.003906 0.617188 -0.839844 0.617188 -0.65625 C 0.617188 -0.507812 0.667969 -0.398438 0.765625 -0.328125 C 0.828125 -0.28125 0.898438 -0.257812 0.976562 -0.257812 C 1.085938 -0.257812 1.1875 -0.289062 1.285156 -0.347656 C 1.382812 -0.410156 1.433594 -0.484375 1.433594 -0.578125 Z M 0.183594 -0.484375 C 0.183594 -0.722656 0.300781 -0.917969 0.539062 -1.078125 C 0.6875 -1.175781 0.984375 -1.308594 1.433594 -1.476562 L 1.433594 -1.683594 C 1.433594 -1.847656 1.417969 -1.964844 1.382812 -2.027344 C 1.328125 -2.136719 1.214844 -2.191406 1.039062 -2.191406 C 0.957031 -2.191406 0.878906 -2.171875 0.804688 -2.128906 C 0.730469 -2.085938 0.691406 -2.023438 0.691406 -1.949219 C 0.691406 -1.929688 0.695312 -1.894531 0.703125 -1.847656 C 0.710938 -1.800781 0.714844 -1.773438 0.714844 -1.761719 C 0.714844 -1.667969 0.683594 -1.605469 0.625 -1.570312 C 0.589844 -1.546875 0.550781 -1.539062 0.503906 -1.539062 C 0.429688 -1.539062 0.375 -1.5625 0.335938 -1.609375 C 0.296875 -1.65625 0.277344 -1.710938 0.277344 -1.769531 C 0.277344 -1.882812 0.347656 -2.003906 0.488281 -2.128906 C 0.628906 -2.253906 0.835938 -2.3125 1.105469 -2.3125 C 1.421875 -2.3125 1.636719 -2.210938 1.75 -2.007812 C 1.808594 -1.894531 1.839844 -1.730469 1.839844 -1.515625 L 1.839844 -0.539062 C 1.839844 -0.445312 1.84375 -0.378906 1.859375 -0.34375 C 1.878906 -0.277344 1.921875 -0.246094 1.988281 -0.246094 C 2.027344 -0.246094 2.058594 -0.253906 2.082031 -0.265625 C 2.105469 -0.277344 2.148438 -0.304688 2.210938 -0.347656 L 2.210938 -0.21875 C 2.15625 -0.15625 2.101562 -0.105469 2.039062 -0.0625 C 1.949219 0 1.855469 0.03125 1.761719 0.03125 C 1.652344 0.03125 1.570312 -0.0078125 1.523438 -0.078125 C 1.472656 -0.148438 1.445312 -0.234375 1.441406 -0.335938 C 1.316406 -0.226562 1.210938 -0.148438 1.125 -0.09375 C 0.976562 -0.0078125 0.835938 0.0351562 0.699219 0.0351562 C 0.558594 0.0351562 0.4375 -0.0117188 0.335938 -0.109375 C 0.234375 -0.210938 0.183594 -0.335938 0.183594 -0.484375 Z "/>
</g>
<g id="glyph-0-7">
<path d="M 1.074219 -2.269531 L 1.074219 -2.191406 C 0.988281 -2.183594 0.929688 -2.167969 0.894531 -2.152344 C 0.859375 -2.136719 0.84375 -2.101562 0.84375 -2.046875 C 0.84375 -2.019531 0.847656 -1.996094 0.851562 -1.972656 C 0.859375 -1.949219 0.875 -1.914062 0.890625 -1.867188 L 1.398438 -0.605469 L 1.839844 -1.722656 C 1.859375 -1.777344 1.878906 -1.832031 1.898438 -1.890625 C 1.917969 -1.949219 1.925781 -1.996094 1.925781 -2.027344 C 1.925781 -2.089844 1.894531 -2.136719 1.835938 -2.164062 C 1.800781 -2.179688 1.75 -2.1875 1.6875 -2.191406 L 1.6875 -2.269531 L 2.382812 -2.269531 L 2.382812 -2.191406 C 2.304688 -2.1875 2.246094 -2.160156 2.210938 -2.113281 C 2.175781 -2.066406 2.125 -1.960938 2.058594 -1.792969 L 1.351562 -0.0351562 C 1.339844 -0.00390625 1.328125 0.0195312 1.320312 0.03125 C 1.3125 0.0429688 1.300781 0.046875 1.285156 0.046875 C 1.269531 0.046875 1.257812 0.0351562 1.246094 0.0195312 C 1.234375 0 1.222656 -0.0234375 1.207031 -0.0507812 L 0.460938 -1.839844 C 0.402344 -1.984375 0.335938 -2.082031 0.269531 -2.132812 C 0.226562 -2.164062 0.167969 -2.183594 0.0898438 -2.191406 L 0.0898438 -2.269531 Z "/>
</g>
</g>
<image id="source-158" x="0" y="0" width="0" height="0"/>
<mask id="mask-0">
<use xlink:href="#source-158"/>
</mask>
</defs>
<g fill="rgb(53.333333%, 53.333333%, 53.333333%)" fill-opacity="1">
<use xlink:href="#glyph-0-0" x="30" y="23.75"/>
<use xlink:href="#glyph-0-1" x="33" y="23.75"/>
<use xlink:href="#glyph-0-2" x="34" y="23.75"/>
<use xlink:href="#glyph-0-3" x="37" y="23.75"/>
<use xlink:href="#glyph-0-4" x="39" y="23.75"/>
<use xlink:href="#glyph-0-5" x="40" y="23.75"/>
<use xlink:href="#glyph-0-6" x="44" y="23.75"/>
<use xlink:href="#glyph-0-7" x="46" y="23.75"/>
<use xlink:href="#glyph-0-3" x="49" y="23.75"/>
</g>
</svg>
