<?xml version="1.0" encoding="UTF-8"?>
<svg xmlns="http://www.w3.org/2000/svg" xmlns:xlink="http://www.w3.org/1999/xlink" width="854" height="480" viewBox="0 0 854 480">
<defs>
<g>
<g id="glyph-0-0">
<path d="M 0.121094 -0.0820312 C 0.332031 -0.09375 0.46875 -0.132812 0.535156 -0.203125 C 0.601562 -0.269531 0.636719 -0.414062 0.636719 -0.636719 L 0.636719 -2.550781 L 0.125 -2.550781 L 0.125 -2.75 L 0.636719 -2.75 C 0.636719 -3.066406 0.679688 -3.332031 0.765625 -3.546875 C 0.925781 -3.964844 1.226562 -4.171875 1.660156 -4.171875 C 1.835938 -4.171875 1.992188 -4.136719 2.132812 -4.066406 C 2.269531 -3.996094 2.339844 -3.902344 2.339844 -3.785156 C 2.339844 -3.71875 2.316406 -3.660156 2.265625 -3.609375 C 2.21875 -3.558594 2.160156 -3.53125 2.09375 -3.53125 C 2.035156 -3.53125 1.988281 -3.550781 1.945312 -3.585938 C 1.902344 -3.621094 1.855469 -3.679688 1.796875 -3.769531 L 1.746094 -3.847656 C 1.71875 -3.886719 1.683594 -3.921875 1.648438 -3.953125 C 1.609375 -3.980469 1.554688 -3.996094 1.488281 -3.996094 C 1.335938 -3.996094 1.234375 -3.921875 1.179688 -3.769531 C 1.152344 -3.691406 1.136719 -3.585938 1.136719 -3.457031 L 1.136719 -2.75 L 1.886719 -2.75 L 1.886719 -2.550781 L 1.144531 -2.550781 L 1.144531 -0.636719 C 1.144531 -0.410156 1.171875 -0.265625 1.234375 -0.203125 C 1.292969 -0.140625 1.453125 -0.101562 1.710938 -0.0820312 L 1.710938 0 L 0.121094 0 Z "/>
</g>
<g id="glyph-0-1">
<path d="M 0.28125 -1.535156 C 0.28125 -2.226562 0.488281 -2.832031 0.902344 -3.355469 C 1.15625 -3.675781 1.457031 -3.933594 1.800781 -4.128906 L 1.859375 -4.03125 C 1.539062 -3.777344 1.308594 -3.527344 1.171875 -3.289062 C 0.933594 -2.867188 0.8125 -2.308594 0.8125 -1.609375 C 0.8125 -1.09375 0.855469 -0.667969 0.949219 -0.332031 C 1.109375 0.257812 1.414062 0.699219 1.859375 0.992188 L 1.78125 1.089844 C 1.535156 0.972656 1.273438 0.742188 0.988281 0.398438 C 0.515625 -0.167969 0.28125 -0.8125 0.28125 -1.535156 Z "/>
</g>
<g id="glyph-0-2">
<path d="M 1.554688 -2.75 L 1.554688 -2.535156 L 0.945312 -2.535156 L 0.941406 -0.816406 C 0.941406 -0.664062 0.953125 -0.550781 0.980469 -0.472656 C 1.027344 -0.335938 1.121094 -0.269531 1.257812 -0.269531 C 1.332031 -0.269531 1.394531 -0.285156 1.445312 -0.320312 C 1.5 -0.351562 1.558594 -0.40625 1.625 -0.480469 L 1.703125 -0.414062 L 1.636719 -0.324219 C 1.535156 -0.1875 1.425781 -0.0859375 1.308594 -0.03125 C 1.195312 0.0273438 1.082031 0.0585938 0.976562 0.0585938 C 0.742188 0.0585938 0.582031 -0.046875 0.5 -0.257812 C 0.453125 -0.371094 0.429688 -0.527344 0.429688 -0.726562 L 0.429688 -2.535156 L 0.105469 -2.535156 C 0.09375 -2.542969 0.0859375 -2.546875 0.0820312 -2.554688 C 0.078125 -2.558594 0.0742188 -2.566406 0.0742188 -2.578125 C 0.0742188 -2.597656 0.078125 -2.613281 0.0898438 -2.625 C 0.0976562 -2.636719 0.125 -2.660156 0.171875 -2.699219 C 0.308594 -2.8125 0.410156 -2.90625 0.46875 -2.976562 C 0.53125 -3.046875 0.671875 -3.234375 0.898438 -3.535156 C 0.925781 -3.535156 0.9375 -3.535156 0.945312 -3.53125 C 0.949219 -3.527344 0.953125 -3.511719 0.953125 -3.484375 L 0.953125 -2.75 Z "/>
</g>
<g id="glyph-0-3">
<path d="M 1.738281 -1.503906 C 1.738281 -1.207031 1.699219 -0.925781 1.625 -0.664062 C 1.546875 -0.398438 1.433594 -0.148438 1.28125 0.0859375 C 1.125 0.335938 0.914062 0.570312 0.652344 0.789062 C 0.480469 0.929688 0.335938 1.03125 0.21875 1.089844 L 0.160156 0.992188 C 0.46875 0.757812 0.691406 0.519531 0.832031 0.277344 C 1.082031 -0.152344 1.207031 -0.71875 1.207031 -1.425781 C 1.207031 -1.996094 1.152344 -2.464844 1.035156 -2.824219 C 0.875 -3.335938 0.582031 -3.738281 0.160156 -4.03125 L 0.238281 -4.128906 C 0.554688 -3.953125 0.84375 -3.691406 1.117188 -3.335938 C 1.53125 -2.789062 1.738281 -2.179688 1.738281 -1.503906 Z "/>
</g>
<g id="glyph-0-4">
<rect x="0" y="0" width="0" height="0" mask="url(#mask-0)"/>
</g>
<g id="glyph-0-5">
<path d="M 3.265625 -1.136719 L 3.265625 -0.71875 L 0.183594 -0.71875 L 0.183594 -1.136719 Z M 3.265625 -2.367188 L 3.265625 -1.953125 L 0.183594 -1.953125 L 0.183594 -2.367188 Z "/>
</g>
<g id="glyph-0-6">
<path d="M 1.398438 -2.796875 C 1.679688 -2.796875 1.925781 -2.703125 2.136719 -2.507812 C 2.347656 -2.3125 2.453125 -2.039062 2.453125 -1.683594 L 0.558594 -1.683594 C 0.578125 -1.222656 0.683594 -0.886719 0.871094 -0.675781 C 1.058594 -0.464844 1.285156 -0.359375 1.542969 -0.359375 C 1.75 -0.359375 1.925781 -0.414062 2.070312 -0.523438 C 2.214844 -0.632812 2.347656 -0.785156 2.46875 -0.988281 L 2.570312 -0.953125 C 2.488281 -0.699219 2.335938 -0.464844 2.113281 -0.25 C 1.890625 -0.0351562 1.617188 0.0703125 1.292969 0.0703125 C 0.917969 0.0703125 0.628906 -0.0703125 0.425781 -0.351562 C 0.222656 -0.632812 0.121094 -0.960938 0.121094 -1.328125 C 0.121094 -1.726562 0.238281 -2.074219 0.472656 -2.363281 C 0.710938 -2.652344 1.019531 -2.796875 1.398438 -2.796875 Z M 1.226562 -2.582031 C 1 -2.582031 0.828125 -2.480469 0.707031 -2.28125 C 0.644531 -2.171875 0.597656 -2.035156 0.570312 -1.875 L 1.828125 -1.875 C 1.808594 -2.074219 1.769531 -2.222656 1.714844 -2.316406 C 1.617188 -2.492188 1.453125 -2.582031 1.226562 -2.582031 Z "/>
</g>
<g id="glyph-0-7">
<path d="M 1.511719 -4.128906 L 2.664062 -1.546875 L 2.253906 -1.546875 L 1.433594 -3.480469 L 0.605469 -1.546875 L 0.195312 -1.546875 L 1.347656 -4.128906 Z "/>
</g>
<g id="glyph-0-8">
<path d="M 0.238281 -1.570312 L 1.738281 -1.570312 L 1.738281 -1.1875 L 0.238281 -1.1875 Z "/>
</g>
</g>
<image id="source-127" x="0" y="0" width="0" height="0"/>
<mask id="mask-0">
<use xlink:href="#source-127"/>
</mask>
</defs>
<g fill="rgb(98.823529%, 38.431373%, 33.333333%)" fill-opacity="1">
<use xlink:href="#glyph-0-0" x="30" y="24.583008"/>
<use xlink:href="#glyph-0-1" x="32" y="24.583008"/>
<use xlink:href="#glyph-0-2" x="34" y="24.583008"/>
<use xlink:href="#glyph-0-3" x="36" y="24.583008"/>
<use xlink:href="#glyph-0-4" x="38" y="24.583008"/>
<use xlink:href="#glyph-0-5" x="40" y="24.583008"/>
<use xlink:href="#glyph-0-4" x="43" y="24.583008"/>
<use xlink:href="#glyph-0-6" x="45" y="24.583008"/>
<use xlink:href="#glyph-0-7" x="48" y="24.583008"/>
<use xlink:href="#glyph-0-1" x="51" y="24.583008"/>
<use xlink:href="#glyph-0-8" x="53" y="24.583008"/>
<use xlink:href="#glyph-0-2" x="55" y="24.583008"/>
<use xlink:href="#glyph-0-3" x="57" y="24.583008"/>
</g>
</svg>
