<?xml version="1.0" encoding="UTF-8"?>
<svg xmlns="http://www.w3.org/2000/svg" xmlns:xlink="http://www.w3.org/1999/xlink" width="854" height="480" viewBox="0 0 854 480">
<defs>
<g>
<g id="glyph-0-0">
<path d="M 2.839844 -2.679688 C 2.722656 -2.664062 2.632812 -2.644531 2.574219 -2.621094 C 2.515625 -2.59375 2.488281 -2.542969 2.488281 -2.464844 C 2.488281 -2.421875 2.496094 -2.378906 2.507812 -2.335938 C 2.519531 -2.289062 2.539062 -2.238281 2.558594 -2.179688 L 3.101562 -0.761719 L 3.632812 -2.054688 C 3.65625 -2.109375 3.683594 -2.183594 3.710938 -2.273438 C 3.738281 -2.363281 3.753906 -2.433594 3.753906 -2.480469 C 3.753906 -2.554688 3.730469 -2.601562 3.683594 -2.628906 C 3.636719 -2.65625 3.574219 -2.671875 3.484375 -2.683594 L 3.484375 -2.773438 L 4.242188 -2.773438 L 4.242188 -2.683594 C 4.191406 -2.675781 4.152344 -2.652344 4.121094 -2.613281 C 4.089844 -2.574219 4.042969 -2.484375 3.984375 -2.34375 L 3.03125 0.0078125 C 3.023438 0.0273438 3.015625 0.0390625 3.011719 0.046875 C 3.003906 0.0546875 2.996094 0.0585938 2.984375 0.0585938 C 2.960938 0.046875 2.945312 0.0390625 2.941406 0.03125 L 2.265625 -1.636719 L 1.484375 0.0234375 C 1.480469 0.0351562 1.472656 0.0429688 1.464844 0.0507812 C 1.457031 0.0585938 1.449219 0.0585938 1.441406 0.0585938 C 1.417969 0.046875 1.402344 0.0390625 1.398438 0.03125 L 0.507812 -2.167969 C 0.410156 -2.410156 0.34375 -2.550781 0.3125 -2.59375 C 0.28125 -2.636719 0.21875 -2.664062 0.125 -2.679688 L 0.125 -2.773438 L 1.230469 -2.773438 L 1.230469 -2.679688 C 1.136719 -2.671875 1.066406 -2.65625 1.019531 -2.628906 C 0.96875 -2.605469 0.945312 -2.550781 0.945312 -2.46875 C 0.945312 -2.414062 0.988281 -2.273438 1.066406 -2.046875 C 1.117188 -1.917969 1.175781 -1.761719 1.25 -1.574219 L 1.589844 -0.726562 L 2.128906 -1.878906 L 2.132812 -1.914062 C 2.132812 -1.953125 2.113281 -2.03125 2.070312 -2.136719 C 2.027344 -2.246094 1.984375 -2.34375 1.945312 -2.429688 C 1.90625 -2.519531 1.859375 -2.582031 1.808594 -2.613281 C 1.757812 -2.648438 1.6875 -2.671875 1.597656 -2.679688 L 1.597656 -2.773438 L 2.839844 -2.773438 Z "/>
</g>
<g id="glyph-0-1">
<path d="M 1.460938 -0.109375 C 1.753906 -0.109375 1.957031 -0.269531 2.066406 -0.589844 C 2.175781 -0.910156 2.230469 -1.375 2.230469 -1.980469 C 2.230469 -2.464844 2.195312 -2.851562 2.128906 -3.140625 C 2.007812 -3.675781 1.777344 -3.945312 1.4375 -3.945312 C 1.101562 -3.945312 0.867188 -3.667969 0.742188 -3.113281 C 0.675781 -2.820312 0.644531 -2.433594 0.644531 -1.953125 C 0.644531 -1.5 0.679688 -1.140625 0.746094 -0.867188 C 0.875 -0.363281 1.113281 -0.109375 1.460938 -0.109375 Z M 1.453125 -4.105469 C 1.910156 -4.105469 2.265625 -3.867188 2.519531 -3.386719 C 2.71875 -3 2.820312 -2.554688 2.820312 -2.050781 C 2.820312 -1.652344 2.757812 -1.28125 2.632812 -0.929688 C 2.402344 -0.273438 2 0.0585938 1.425781 0.0585938 C 1.035156 0.0585938 0.710938 -0.121094 0.460938 -0.476562 C 0.1875 -0.855469 0.0546875 -1.375 0.0546875 -2.027344 C 0.0546875 -2.539062 0.144531 -2.980469 0.324219 -3.351562 C 0.570312 -3.855469 0.945312 -4.105469 1.453125 -4.105469 Z "/>
</g>
<g id="glyph-0-2">
<rect x="0" y="0" width="0" height="0" mask="url(#mask-0)"/>
</g>
<g id="glyph-0-3">
<path d="M 3.265625 -1.136719 L 3.265625 -0.71875 L 0.183594 -0.71875 L 0.183594 -1.136719 Z M 3.265625 -2.367188 L 3.265625 -1.953125 L 0.183594 -1.953125 L 0.183594 -2.367188 Z "/>
</g>
<g id="glyph-0-4">
<path d="M 1.808594 -4.097656 C 1.816406 -4.089844 1.820312 -4.082031 1.820312 -4.078125 C 1.820312 -4.074219 1.824219 -4.0625 1.824219 -4.042969 L 1.824219 -0.449219 C 1.824219 -0.296875 1.863281 -0.199219 1.945312 -0.15625 C 2.027344 -0.117188 2.179688 -0.0898438 2.402344 -0.0820312 L 2.402344 0 L 0.71875 0 L 0.71875 -0.0898438 C 0.960938 -0.101562 1.117188 -0.132812 1.191406 -0.1875 C 1.265625 -0.242188 1.300781 -0.359375 1.300781 -0.535156 L 1.300781 -3.300781 C 1.300781 -3.394531 1.289062 -3.46875 1.265625 -3.519531 C 1.242188 -3.566406 1.1875 -3.59375 1.109375 -3.59375 C 1.058594 -3.59375 0.992188 -3.578125 0.910156 -3.550781 C 0.828125 -3.519531 0.75 -3.488281 0.675781 -3.457031 L 0.675781 -3.542969 L 1.773438 -4.097656 Z "/>
</g>
<g id="glyph-0-5">
<path d="M 1.371094 -4.128906 L 1.667969 -4.128906 L 0.316406 0.101562 L 0.0117188 0.101562 Z "/>
</g>
<g id="glyph-0-6">
<path d="M 0.316406 -0.941406 L 0.414062 -0.941406 C 0.460938 -0.714844 0.523438 -0.539062 0.601562 -0.417969 C 0.738281 -0.195312 0.941406 -0.0820312 1.210938 -0.0820312 C 1.359375 -0.0820312 1.476562 -0.125 1.566406 -0.207031 C 1.652344 -0.289062 1.695312 -0.398438 1.695312 -0.527344 C 1.695312 -0.613281 1.667969 -0.691406 1.621094 -0.769531 C 1.570312 -0.847656 1.484375 -0.921875 1.359375 -0.996094 L 1.023438 -1.1875 C 0.777344 -1.320312 0.597656 -1.449219 0.484375 -1.585938 C 0.367188 -1.71875 0.308594 -1.875 0.308594 -2.054688 C 0.308594 -2.277344 0.390625 -2.460938 0.550781 -2.605469 C 0.707031 -2.75 0.90625 -2.820312 1.148438 -2.820312 C 1.253906 -2.820312 1.371094 -2.800781 1.496094 -2.761719 C 1.621094 -2.71875 1.695312 -2.699219 1.710938 -2.699219 C 1.746094 -2.699219 1.769531 -2.707031 1.789062 -2.714844 C 1.804688 -2.726562 1.816406 -2.742188 1.828125 -2.761719 L 1.902344 -2.761719 L 1.921875 -1.929688 L 1.828125 -1.929688 C 1.789062 -2.125 1.734375 -2.273438 1.667969 -2.382812 C 1.542969 -2.582031 1.367188 -2.679688 1.132812 -2.679688 C 0.996094 -2.679688 0.886719 -2.636719 0.804688 -2.550781 C 0.726562 -2.464844 0.6875 -2.363281 0.6875 -2.25 C 0.6875 -2.066406 0.824219 -1.902344 1.097656 -1.761719 L 1.492188 -1.546875 C 1.914062 -1.316406 2.128906 -1.050781 2.128906 -0.742188 C 2.128906 -0.507812 2.039062 -0.316406 1.863281 -0.167969 C 1.6875 -0.0195312 1.457031 0.0585938 1.171875 0.0585938 C 1.054688 0.0585938 0.917969 0.0351562 0.765625 -0.00390625 C 0.613281 -0.0429688 0.527344 -0.0625 0.5 -0.0625 C 0.476562 -0.0625 0.453125 -0.0546875 0.4375 -0.0390625 C 0.417969 -0.0195312 0.402344 0 0.394531 0.0234375 L 0.316406 0.0234375 Z "/>
</g>
<g id="glyph-0-7">
<path d="M 1.457031 -0.320312 C 1.503906 -0.320312 1.566406 -0.328125 1.648438 -0.34375 C 1.730469 -0.359375 1.804688 -0.386719 1.875 -0.421875 C 1.96875 -0.476562 2.027344 -0.519531 2.046875 -0.5625 C 2.066406 -0.601562 2.078125 -0.675781 2.078125 -0.785156 L 2.078125 -2.042969 C 2.078125 -2.199219 2.050781 -2.324219 2.003906 -2.410156 C 1.914062 -2.570312 1.746094 -2.648438 1.496094 -2.648438 C 1.214844 -2.648438 1.007812 -2.53125 0.871094 -2.300781 C 0.738281 -2.066406 0.671875 -1.796875 0.671875 -1.496094 C 0.671875 -1.144531 0.738281 -0.859375 0.875 -0.644531 C 1.011719 -0.425781 1.207031 -0.320312 1.457031 -0.320312 Z M 1.523438 -2.8125 C 1.660156 -2.8125 1.777344 -2.792969 1.882812 -2.757812 C 1.953125 -2.734375 2.058594 -2.679688 2.199219 -2.601562 L 2.53125 -2.796875 C 2.546875 -2.804688 2.5625 -2.8125 2.570312 -2.8125 C 2.582031 -2.804688 2.585938 -2.800781 2.589844 -2.796875 C 2.589844 -2.792969 2.59375 -2.777344 2.59375 -2.757812 L 2.59375 0.871094 C 2.59375 0.976562 2.613281 1.054688 2.648438 1.105469 C 2.707031 1.183594 2.820312 1.230469 2.984375 1.246094 L 2.984375 1.332031 L 1.539062 1.332031 L 1.539062 1.230469 C 1.714844 1.230469 1.847656 1.199219 1.933594 1.144531 C 2.019531 1.085938 2.066406 0.957031 2.066406 0.757812 L 2.066406 -0.378906 C 1.925781 -0.242188 1.804688 -0.144531 1.703125 -0.0820312 C 1.535156 0.015625 1.347656 0.0625 1.140625 0.0625 C 0.890625 0.0625 0.664062 -0.0507812 0.457031 -0.28125 C 0.25 -0.511719 0.144531 -0.847656 0.144531 -1.292969 C 0.144531 -1.703125 0.273438 -2.058594 0.53125 -2.363281 C 0.785156 -2.664062 1.117188 -2.8125 1.523438 -2.8125 Z "/>
</g>
<g id="glyph-0-8">
<path d="M 0.0273438 -0.0976562 C 0.210938 -0.113281 0.332031 -0.148438 0.390625 -0.195312 C 0.449219 -0.242188 0.480469 -0.347656 0.480469 -0.507812 L 0.480469 -1.851562 C 0.480469 -2.050781 0.460938 -2.191406 0.425781 -2.273438 C 0.386719 -2.359375 0.320312 -2.402344 0.222656 -2.402344 C 0.203125 -2.402344 0.175781 -2.398438 0.144531 -2.394531 C 0.113281 -2.390625 0.078125 -2.382812 0.0429688 -2.375 L 0.0429688 -2.472656 C 0.15625 -2.511719 0.273438 -2.554688 0.390625 -2.597656 C 0.511719 -2.636719 0.59375 -2.667969 0.636719 -2.683594 C 0.738281 -2.722656 0.839844 -2.765625 0.945312 -2.8125 C 0.960938 -2.8125 0.96875 -2.808594 0.972656 -2.796875 C 0.976562 -2.789062 0.976562 -2.769531 0.976562 -2.734375 L 0.976562 -2.246094 C 1.101562 -2.421875 1.226562 -2.5625 1.34375 -2.660156 C 1.460938 -2.761719 1.585938 -2.808594 1.710938 -2.808594 C 1.8125 -2.808594 1.898438 -2.78125 1.960938 -2.71875 C 2.023438 -2.660156 2.054688 -2.582031 2.054688 -2.492188 C 2.054688 -2.410156 2.03125 -2.339844 1.984375 -2.285156 C 1.933594 -2.230469 1.871094 -2.203125 1.800781 -2.203125 C 1.722656 -2.203125 1.648438 -2.238281 1.570312 -2.304688 C 1.492188 -2.375 1.433594 -2.410156 1.390625 -2.410156 C 1.320312 -2.410156 1.234375 -2.355469 1.132812 -2.242188 C 1.03125 -2.128906 0.980469 -2.015625 0.980469 -1.894531 L 0.980469 -0.550781 C 0.980469 -0.378906 1.019531 -0.257812 1.101562 -0.191406 C 1.179688 -0.125 1.3125 -0.09375 1.496094 -0.0976562 L 1.496094 0 L 0.0273438 0 Z "/>
</g>
<g id="glyph-0-9">
<path d="M 1.554688 -2.75 L 1.554688 -2.535156 L 0.945312 -2.535156 L 0.941406 -0.816406 C 0.941406 -0.664062 0.953125 -0.550781 0.980469 -0.472656 C 1.027344 -0.335938 1.121094 -0.269531 1.257812 -0.269531 C 1.332031 -0.269531 1.394531 -0.285156 1.445312 -0.320312 C 1.5 -0.351562 1.558594 -0.40625 1.625 -0.480469 L 1.703125 -0.414062 L 1.636719 -0.324219 C 1.535156 -0.1875 1.425781 -0.0859375 1.308594 -0.03125 C 1.195312 0.0273438 1.082031 0.0585938 0.976562 0.0585938 C 0.742188 0.0585938 0.582031 -0.046875 0.5 -0.257812 C 0.453125 -0.371094 0.429688 -0.527344 0.429688 -0.726562 L 0.429688 -2.535156 L 0.105469 -2.535156 C 0.09375 -2.542969 0.0859375 -2.546875 0.0820312 -2.554688 C 0.078125 -2.558594 0.0742188 -2.566406 0.0742188 -2.578125 C 0.0742188 -2.597656 0.078125 -2.613281 0.0898438 -2.625 C 0.0976562 -2.636719 0.125 -2.660156 0.171875 -2.699219 C 0.308594 -2.8125 0.410156 -2.90625 0.46875 -2.976562 C 0.53125 -3.046875 0.671875 -3.234375 0.898438 -3.535156 C 0.925781 -3.535156 0.9375 -3.535156 0.945312 -3.53125 C 0.949219 -3.527344 0.953125 -3.511719 0.953125 -3.484375 L 0.953125 -2.75 Z "/>
</g>
<g id="glyph-0-10">
<path d="M 0.28125 -1.535156 C 0.28125 -2.226562 0.488281 -2.832031 0.902344 -3.355469 C 1.15625 -3.675781 1.457031 -3.933594 1.800781 -4.128906 L 1.859375 -4.03125 C 1.539062 -3.777344 1.308594 -3.527344 1.171875 -3.289062 C 0.933594 -2.867188 0.8125 -2.308594 0.8125 -1.609375 C 0.8125 -1.09375 0.855469 -0.667969 0.949219 -0.332031 C 1.109375 0.257812 1.414062 0.699219 1.859375 0.992188 L 1.78125 1.089844 C 1.535156 0.972656 1.273438 0.742188 0.988281 0.398438 C 0.515625 -0.167969 0.28125 -0.8125 0.28125 -1.535156 Z "/>
</g>
<g id="glyph-0-11">
<path d="M 0.0703125 -0.109375 C 0.292969 -0.132812 0.4375 -0.175781 0.503906 -0.230469 C 0.570312 -0.289062 0.605469 -0.429688 0.605469 -0.664062 L 0.605469 -3.378906 C 0.605469 -3.597656 0.574219 -3.738281 0.507812 -3.804688 C 0.441406 -3.871094 0.296875 -3.914062 0.0703125 -3.929688 L 0.0703125 -4.042969 L 1.796875 -4.042969 L 1.796875 -3.929688 C 1.570312 -3.917969 1.421875 -3.878906 1.34375 -3.820312 C 1.265625 -3.757812 1.230469 -3.625 1.230469 -3.421875 L 1.230469 -0.484375 C 1.230469 -0.417969 1.242188 -0.367188 1.261719 -0.328125 C 1.285156 -0.289062 1.335938 -0.261719 1.414062 -0.253906 C 1.460938 -0.246094 1.507812 -0.242188 1.558594 -0.242188 C 1.609375 -0.238281 1.703125 -0.238281 1.84375 -0.238281 C 2.386719 -0.238281 2.753906 -0.285156 2.945312 -0.371094 C 3.136719 -0.460938 3.320312 -0.691406 3.5 -1.058594 L 3.65625 -1.058594 L 3.355469 0 L 0.0703125 0 Z "/>
</g>
<g id="glyph-0-12">
<path d="M 2.261719 -4.113281 C 2.480469 -4.113281 2.710938 -4.082031 2.941406 -4.015625 C 3.175781 -3.949219 3.304688 -3.917969 3.332031 -3.917969 C 3.390625 -3.917969 3.445312 -3.933594 3.496094 -3.964844 C 3.546875 -3.996094 3.585938 -4.046875 3.605469 -4.113281 L 3.734375 -4.113281 L 3.789062 -2.742188 L 3.648438 -2.742188 C 3.566406 -3.015625 3.460938 -3.234375 3.328125 -3.402344 C 3.078125 -3.714844 2.742188 -3.871094 2.316406 -3.871094 C 1.890625 -3.871094 1.539062 -3.703125 1.269531 -3.367188 C 0.996094 -3.027344 0.863281 -2.5625 0.863281 -1.96875 C 0.863281 -1.425781 1.003906 -0.988281 1.289062 -0.664062 C 1.574219 -0.339844 1.9375 -0.175781 2.375 -0.175781 C 2.691406 -0.175781 2.984375 -0.25 3.25 -0.402344 C 3.402344 -0.488281 3.570312 -0.617188 3.753906 -0.789062 L 3.867188 -0.675781 C 3.730469 -0.503906 3.5625 -0.355469 3.363281 -0.226562 C 3.019531 -0.0078125 2.648438 0.101562 2.25 0.101562 C 1.59375 0.101562 1.070312 -0.109375 0.6875 -0.527344 C 0.332031 -0.914062 0.152344 -1.398438 0.152344 -1.980469 C 0.152344 -2.574219 0.339844 -3.074219 0.714844 -3.480469 C 1.113281 -3.902344 1.628906 -4.113281 2.261719 -4.113281 Z "/>
</g>
<g id="glyph-0-13">
<path d="M 1.738281 -1.503906 C 1.738281 -1.207031 1.699219 -0.925781 1.625 -0.664062 C 1.546875 -0.398438 1.433594 -0.148438 1.28125 0.0859375 C 1.125 0.335938 0.914062 0.570312 0.652344 0.789062 C 0.480469 0.929688 0.335938 1.03125 0.21875 1.089844 L 0.160156 0.992188 C 0.46875 0.757812 0.691406 0.519531 0.832031 0.277344 C 1.082031 -0.152344 1.207031 -0.71875 1.207031 -1.425781 C 1.207031 -1.996094 1.152344 -2.464844 1.035156 -2.824219 C 0.875 -3.335938 0.582031 -3.738281 0.160156 -4.03125 L 0.238281 -4.128906 C 0.554688 -3.953125 0.84375 -3.691406 1.117188 -3.335938 C 1.53125 -2.789062 1.738281 -2.179688 1.738281 -1.503906 Z "/>
</g>
</g>
<image id="source-57" x="0" y="0" width="0" height="0"/>
<mask id="mask-0">
<use xlink:href="#source-57"/>
</mask>
</defs>
<g fill="rgb(100%, 100%, 100%)" fill-opacity="1">
<use xlink:href="#glyph-0-0" x="30" y="24.583008"/>
<use xlink:href="#glyph-0-1" x="34" y="24.583008"/>
<use xlink:href="#glyph-0-2" x="37" y="24.583008"/>
<use xlink:href="#glyph-0-3" x="39" y="24.583008"/>
<use xlink:href="#glyph-0-2" x="42" y="24.583008"/>
<use xlink:href="#glyph-0-4" x="44" y="24.583008"/>
<use xlink:href="#glyph-0-5" x="47" y="24.583008"/>
<use xlink:href="#glyph-0-6" x="49" y="24.583008"/>
<use xlink:href="#glyph-0-7" x="51" y="24.583008"/>
<use xlink:href="#glyph-0-8" x="54" y="24.583008"/>
<use xlink:href="#glyph-0-9" x="56" y="24.583008"/>
<use xlink:href="#glyph-0-10" x="58" y="24.583008"/>
<use xlink:href="#glyph-0-11" x="60" y="24.583008"/>
<use xlink:href="#glyph-0-12" x="64" y="24.583008"/>
<use xlink:href="#glyph-0-13" x="68" y="24.583008"/>
</g>
</svg>
