<?xml version="1.0" encoding="UTF-8"?>
<svg xmlns="http://www.w3.org/2000/svg" xmlns:xlink="http://www.w3.org/1999/xlink" width="854" height="480" viewBox="0 0 854 480">
<defs>
<g>
<g id="glyph-0-0">
<path d="M 0.121094 -0.0820312 C 0.332031 -0.09375 0.46875 -0.132812 0.535156 -0.203125 C 0.601562 -0.269531 0.636719 -0.414062 0.636719 -0.636719 L 0.636719 -2.550781 L 0.125 -2.550781 L 0.125 -2.75 L 0.636719 -2.75 C 0.636719 -3.066406 0.679688 -3.332031 0.765625 -3.546875 C 0.925781 -3.964844 1.226562 -4.171875 1.660156 -4.171875 C 1.835938 -4.171875 1.992188 -4.136719 2.132812 -4.066406 C 2.269531 -3.996094 2.339844 -3.902344 2.339844 -3.785156 C 2.339844 -3.71875 2.316406 -3.660156 2.265625 -3.609375 C 2.21875 -3.558594 2.160156 -3.53125 2.09375 -3.53125 C 2.035156 -3.53125 1.988281 -3.550781 1.945312 -3.585938 C 1.902344 -3.621094 1.855469 -3.679688 1.796875 -3.769531 L 1.746094 -3.847656 C 1.71875 -3.886719 1.683594 -3.921875 1.648438 -3.953125 C 1.609375 -3.980469 1.554688 -3.996094 1.488281 -3.996094 C 1.335938 -3.996094 1.234375 -3.921875 1.179688 -3.769531 C 1.152344 -3.691406 1.136719 -3.585938 1.136719 -3.457031 L 1.136719 -2.75 L 1.886719 -2.75 L 1.886719 -2.550781 L 1.144531 -2.550781 L 1.144531 -0.636719 C 1.144531 -0.410156 1.171875 -0.265625 1.234375 -0.203125 C 1.292969 -0.140625 1.453125 -0.101562 1.710938 -0.0820312 L 1.710938 0 L 0.121094 0 Z "/>
</g>
<g id="glyph-0-1">
<path d="M 0.28125 -1.535156 C 0.28125 -2.226562 0.488281 -2.832031 0.902344 -3.355469 C 1.15625 -3.675781 1.457031 -3.933594 1.800781 -4.128906 L 1.859375 -4.03125 C 1.539062 -3.777344 1.308594 -3.527344 1.171875 -3.289062 C 0.933594 -2.867188 0.8125 -2.308594 0.8125 -1.609375 C 0.8125 -1.09375 0.855469 -0.667969 0.949219 -0.332031 C 1.109375 0.257812 1.414062 0.699219 1.859375 0.992188 L 1.78125 1.089844 C 1.535156 0.972656 1.273438 0.742188 0.988281 0.398438 C 0.515625 -0.167969 0.28125 -0.8125 0.28125 -1.535156 Z "/>
</g>
<g id="glyph-0-2">
<path d="M 1.554688 -2.75 L 1.554688 -2.535156 L 0.945312 -2.535156 L 0.941406 -0.816406 C 0.941406 -0.664062 0.953125 -0.550781 0.980469 -0.472656 C 1.027344 -0.335938 1.121094 -0.269531 1.257812 -0.269531 C 1.332031 -0.269531 1.394531 -0.285156 1.445312 -0.320312 C 1.5 -0.351562 1.558594 -0.40625 1.625 -0.480469 L 1.703125 -0.414062 L 1.636719 -0.324219 C 1.535156 -0.1875 1.425781 -0.0859375 1.308594 -0.03125 C 1.195312 0.0273438 1.082031 0.0585938 0.976562 0.0585938 C 0.742188 0.0585938 0.582031 -0.046875 0.5 -0.257812 C 0.453125 -0.371094 0.429688 -0.527344 0.429688 -0.726562 L 0.429688 -2.535156 L 0.105469 -2.535156 C 0.09375 -2.542969 0.0859375 -2.546875 0.0820312 -2.554688 C 0.078125 -2.558594 0.0742188 -2.566406 0.0742188 -2.578125 C 0.0742188 -2.597656 0.078125 -2.613281 0.0898438 -2.625 C 0.0976562 -2.636719 0.125 -2.660156 0.171875 -2.699219 C 0.308594 -2.8125 0.410156 -2.90625 0.46875 -2.976562 C 0.53125 -3.046875 0.671875 -3.234375 0.898438 -3.535156 C 0.925781 -3.535156 0.9375 -3.535156 0.945312 -3.53125 C 0.949219 -3.527344 0.953125 -3.511719 0.953125 -3.484375 L 0.953125 -2.75 Z "/>
</g>
<g id="glyph-0-3">
<path d="M 1.738281 -1.503906 C 1.738281 -1.207031 1.699219 -0.925781 1.625 -0.664062 C 1.546875 -0.398438 1.433594 -0.148438 1.28125 0.0859375 C 1.125 0.335938 0.914062 0.570312 0.652344 0.789062 C 0.480469 0.929688 0.335938 1.03125 0.21875 1.089844 L 0.160156 0.992188 C 0.46875 0.757812 0.691406 0.519531 0.832031 0.277344 C 1.082031 -0.152344 1.207031 -0.71875 1.207031 -1.425781 C 1.207031 -1.996094 1.152344 -2.464844 1.035156 -2.824219 C 0.875 -3.335938 0.582031 -3.738281 0.160156 -4.03125 L 0.238281 -4.128906 C 0.554688 -3.953125 0.84375 -3.691406 1.117188 -3.335938 C 1.53125 -2.789062 1.738281 -2.179688 1.738281 -1.503906 Z "/>
</g>
<g id="glyph-0-4">
<rect x="0" y="0" width="0" height="0" mask="url(#mask-0)"/>
</g>
<g id="glyph-0-5">
<path d="M 3.265625 -1.136719 L 3.265625 -0.71875 L 0.183594 -0.71875 L 0.183594 -1.136719 Z M 3.265625 -2.367188 L 3.265625 -1.953125 L 0.183594 -1.953125 L 0.183594 -2.367188 Z "/>
</g>
<g id="glyph-0-6">
<path d="M 0.945312 -2.761719 L 0.945312 -0.851562 C 0.945312 -0.71875 0.964844 -0.609375 1.003906 -0.527344 C 1.078125 -0.375 1.210938 -0.300781 1.410156 -0.300781 C 1.542969 -0.300781 1.675781 -0.347656 1.804688 -0.4375 C 1.878906 -0.484375 1.953125 -0.554688 2.027344 -0.640625 L 2.027344 -2.277344 C 2.027344 -2.429688 2 -2.53125 1.9375 -2.578125 C 1.878906 -2.625 1.761719 -2.65625 1.582031 -2.664062 L 1.582031 -2.761719 L 2.546875 -2.761719 L 2.546875 -0.664062 C 2.546875 -0.527344 2.570312 -0.433594 2.617188 -0.382812 C 2.667969 -0.332031 2.769531 -0.308594 2.925781 -0.316406 L 2.925781 -0.234375 C 2.816406 -0.203125 2.738281 -0.179688 2.683594 -0.164062 C 2.632812 -0.148438 2.546875 -0.125 2.425781 -0.0820312 C 2.375 -0.0664062 2.261719 -0.0234375 2.085938 0.0429688 C 2.074219 0.0429688 2.070312 0.0390625 2.066406 0.03125 C 2.066406 0.0234375 2.066406 0.0117188 2.066406 0 L 2.066406 -0.480469 C 1.929688 -0.320312 1.804688 -0.199219 1.695312 -0.121094 C 1.527344 -0.00390625 1.347656 0.0585938 1.15625 0.0585938 C 0.984375 0.0585938 0.820312 -0.00390625 0.667969 -0.128906 C 0.511719 -0.25 0.4375 -0.453125 0.4375 -0.738281 L 0.4375 -2.289062 C 0.4375 -2.449219 0.402344 -2.554688 0.335938 -2.609375 C 0.289062 -2.640625 0.195312 -2.664062 0.0546875 -2.679688 L 0.0546875 -2.761719 Z "/>
</g>
</g>
<image id="source-127" x="0" y="0" width="0" height="0"/>
<mask id="mask-0">
<use xlink:href="#source-127"/>
</mask>
</defs>
<g fill="rgb(34.509804%, 76.862745%, 86.666667%)" fill-opacity="1">
<use xlink:href="#glyph-0-0" x="30" y="24.583008"/>
<use xlink:href="#glyph-0-1" x="32" y="24.583008"/>
<use xlink:href="#glyph-0-2" x="34" y="24.583008"/>
<use xlink:href="#glyph-0-3" x="36" y="24.583008"/>
<use xlink:href="#glyph-0-4" x="38" y="24.583008"/>
<use xlink:href="#glyph-0-5" x="40" y="24.583008"/>
<use xlink:href="#glyph-0-4" x="43" y="24.583008"/>
<use xlink:href="#glyph-0-6" x="45" y="24.583008"/>
<use xlink:href="#glyph-0-1" x="48" y="24.583008"/>
<use xlink:href="#glyph-0-2" x="50" y="24.583008"/>
<use xlink:href="#glyph-0-3" x="52" y="24.583008"/>
</g>
</svg>
