<?xml version="1.0" encoding="UTF-8"?>
<svg xmlns="http://www.w3.org/2000/svg" xmlns:xlink="http://www.w3.org/1999/xlink" width="854" height="480" viewBox="0 0 854 480">
<defs>
<g>
<g id="glyph-0-0">
<path d="M 1.152344 -2.609375 C 1.15625 -2.601562 1.160156 -2.597656 1.160156 -2.59375 C 1.160156 -2.589844 1.160156 -2.585938 1.160156 -2.574219 L 1.160156 -0.285156 C 1.160156 -0.1875 1.1875 -0.128906 1.238281 -0.101562 C 1.289062 -0.0742188 1.386719 -0.0585938 1.527344 -0.0546875 L 1.527344 0 L 0.457031 0 L 0.457031 -0.0585938 C 0.609375 -0.0664062 0.710938 -0.0859375 0.757812 -0.121094 C 0.804688 -0.15625 0.828125 -0.226562 0.828125 -0.34375 L 0.828125 -2.101562 C 0.828125 -2.160156 0.820312 -2.207031 0.804688 -2.238281 C 0.789062 -2.269531 0.757812 -2.285156 0.707031 -2.285156 C 0.671875 -2.285156 0.632812 -2.277344 0.578125 -2.257812 C 0.527344 -2.242188 0.476562 -2.222656 0.429688 -2.203125 L 0.429688 -2.253906 L 1.128906 -2.609375 Z "/>
</g>
<g id="glyph-0-1">
<path d="M 0.871094 -2.628906 L 1.0625 -2.628906 L 0.203125 0.0664062 L 0.0078125 0.0664062 Z "/>
</g>
<g id="glyph-0-2">
<path d="M 0.425781 -2.453125 C 0.425781 -2.507812 0.445312 -2.554688 0.484375 -2.59375 C 0.523438 -2.632812 0.570312 -2.652344 0.625 -2.652344 C 0.679688 -2.652344 0.726562 -2.632812 0.765625 -2.59375 C 0.804688 -2.554688 0.824219 -2.507812 0.824219 -2.453125 C 0.824219 -2.398438 0.804688 -2.351562 0.765625 -2.3125 C 0.726562 -2.273438 0.679688 -2.253906 0.625 -2.253906 C 0.570312 -2.253906 0.523438 -2.273438 0.484375 -2.3125 C 0.445312 -2.351562 0.425781 -2.398438 0.425781 -2.453125 Z M -0.0703125 0.480469 C -0.00390625 0.480469 0.0625 0.523438 0.125 0.601562 C 0.1875 0.683594 0.242188 0.722656 0.289062 0.722656 C 0.371094 0.722656 0.425781 0.675781 0.453125 0.582031 C 0.46875 0.527344 0.476562 0.433594 0.480469 0.304688 C 0.480469 0.257812 0.480469 0.140625 0.480469 -0.0429688 L 0.480469 -1.292969 C 0.480469 -1.378906 0.472656 -1.441406 0.457031 -1.480469 C 0.441406 -1.523438 0.402344 -1.542969 0.34375 -1.542969 C 0.324219 -1.542969 0.300781 -1.539062 0.273438 -1.535156 C 0.246094 -1.527344 0.214844 -1.519531 0.183594 -1.511719 L 0.183594 -1.570312 L 0.34375 -1.625 C 0.382812 -1.636719 0.4375 -1.652344 0.5 -1.675781 C 0.5625 -1.699219 0.621094 -1.71875 0.679688 -1.742188 L 0.792969 -1.78125 C 0.796875 -1.773438 0.800781 -1.765625 0.800781 -1.753906 L 0.800781 0 C 0.800781 0.21875 0.773438 0.390625 0.714844 0.511719 C 0.613281 0.738281 0.421875 0.851562 0.136719 0.851562 C 0.0429688 0.851562 -0.0429688 0.832031 -0.113281 0.792969 C -0.1875 0.753906 -0.222656 0.707031 -0.222656 0.640625 C -0.222656 0.601562 -0.210938 0.5625 -0.179688 0.53125 C -0.152344 0.5 -0.113281 0.480469 -0.0703125 0.480469 Z "/>
</g>
<g id="glyph-0-3">
<path d="M 1.808594 -1.707031 C 1.730469 -1.695312 1.675781 -1.683594 1.640625 -1.667969 C 1.601562 -1.652344 1.582031 -1.617188 1.582031 -1.570312 C 1.582031 -1.542969 1.589844 -1.515625 1.597656 -1.484375 C 1.605469 -1.457031 1.617188 -1.425781 1.628906 -1.386719 L 1.976562 -0.484375 L 2.3125 -1.308594 C 2.328125 -1.34375 2.34375 -1.390625 2.363281 -1.449219 C 2.378906 -1.507812 2.390625 -1.550781 2.390625 -1.578125 C 2.390625 -1.625 2.375 -1.65625 2.34375 -1.671875 C 2.316406 -1.6875 2.273438 -1.703125 2.21875 -1.710938 L 2.21875 -1.765625 L 2.699219 -1.765625 L 2.699219 -1.710938 C 2.667969 -1.703125 2.644531 -1.6875 2.621094 -1.664062 C 2.601562 -1.640625 2.574219 -1.582031 2.539062 -1.492188 L 1.929688 0.00390625 C 1.925781 0.015625 1.921875 0.0234375 1.917969 0.03125 C 1.914062 0.0351562 1.90625 0.0390625 1.898438 0.0390625 C 1.882812 0.03125 1.875 0.0234375 1.871094 0.0195312 L 1.445312 -1.042969 L 0.945312 0.015625 C 0.941406 0.0234375 0.9375 0.0273438 0.933594 0.03125 C 0.929688 0.0351562 0.921875 0.0390625 0.917969 0.0390625 C 0.902344 0.03125 0.894531 0.0234375 0.890625 0.0195312 L 0.324219 -1.378906 C 0.261719 -1.535156 0.21875 -1.625 0.199219 -1.652344 C 0.179688 -1.679688 0.140625 -1.695312 0.078125 -1.707031 L 0.078125 -1.765625 L 0.78125 -1.765625 L 0.78125 -1.707031 C 0.722656 -1.699219 0.679688 -1.691406 0.648438 -1.675781 C 0.617188 -1.660156 0.601562 -1.625 0.601562 -1.574219 C 0.601562 -1.535156 0.628906 -1.445312 0.679688 -1.304688 C 0.710938 -1.222656 0.75 -1.121094 0.796875 -1.003906 L 1.011719 -0.464844 L 1.355469 -1.195312 L 1.359375 -1.21875 C 1.359375 -1.246094 1.34375 -1.292969 1.316406 -1.359375 C 1.289062 -1.429688 1.261719 -1.492188 1.238281 -1.546875 C 1.214844 -1.601562 1.183594 -1.640625 1.152344 -1.664062 C 1.121094 -1.6875 1.074219 -1.699219 1.015625 -1.707031 L 1.015625 -1.765625 L 1.808594 -1.765625 Z "/>
</g>
<g id="glyph-0-4">
<rect x="0" y="0" width="0" height="0" mask="url(#mask-0)"/>
</g>
<g id="glyph-0-5">
<path d="M 0.179688 -0.976562 C 0.179688 -1.417969 0.308594 -1.804688 0.574219 -2.136719 C 0.734375 -2.339844 0.925781 -2.503906 1.148438 -2.628906 L 1.183594 -2.566406 C 0.980469 -2.402344 0.832031 -2.246094 0.746094 -2.09375 C 0.59375 -1.824219 0.515625 -1.46875 0.515625 -1.027344 C 0.515625 -0.695312 0.546875 -0.425781 0.605469 -0.210938 C 0.707031 0.164062 0.898438 0.445312 1.183594 0.628906 L 1.132812 0.691406 C 0.976562 0.617188 0.808594 0.472656 0.628906 0.253906 C 0.328125 -0.105469 0.179688 -0.515625 0.179688 -0.976562 Z "/>
</g>
<g id="glyph-0-6">
<path d="M 0.152344 -1 L 1.105469 -1 L 1.105469 -0.757812 L 0.152344 -0.757812 Z "/>
</g>
<g id="glyph-0-7">
<path d="M 0.117188 -0.0429688 C 0.578125 -0.523438 0.894531 -0.878906 1.058594 -1.101562 C 1.226562 -1.328125 1.308594 -1.546875 1.308594 -1.761719 C 1.308594 -1.949219 1.257812 -2.09375 1.15625 -2.191406 C 1.054688 -2.289062 0.933594 -2.339844 0.792969 -2.339844 C 0.621094 -2.339844 0.480469 -2.273438 0.371094 -2.148438 C 0.3125 -2.078125 0.253906 -1.972656 0.203125 -1.828125 L 0.121094 -1.84375 C 0.183594 -2.136719 0.289062 -2.335938 0.441406 -2.449219 C 0.59375 -2.5625 0.753906 -2.621094 0.929688 -2.621094 C 1.144531 -2.621094 1.316406 -2.554688 1.449219 -2.417969 C 1.582031 -2.285156 1.648438 -2.117188 1.648438 -1.925781 C 1.648438 -1.71875 1.574219 -1.515625 1.433594 -1.324219 C 1.289062 -1.132812 0.976562 -0.789062 0.5 -0.296875 L 1.371094 -0.296875 C 1.492188 -0.296875 1.578125 -0.3125 1.628906 -0.339844 C 1.675781 -0.367188 1.734375 -0.441406 1.792969 -0.550781 L 1.84375 -0.53125 L 1.632812 0 L 0.117188 0 Z "/>
</g>
<g id="glyph-0-8">
<path d="M 0.929688 -0.0703125 C 1.117188 -0.0703125 1.246094 -0.171875 1.3125 -0.375 C 1.382812 -0.578125 1.417969 -0.875 1.417969 -1.261719 C 1.417969 -1.570312 1.398438 -1.8125 1.355469 -1.996094 C 1.277344 -2.339844 1.128906 -2.511719 0.914062 -2.511719 C 0.699219 -2.511719 0.550781 -2.335938 0.472656 -1.984375 C 0.429688 -1.796875 0.410156 -1.546875 0.410156 -1.242188 C 0.410156 -0.953125 0.433594 -0.726562 0.476562 -0.550781 C 0.554688 -0.230469 0.707031 -0.0703125 0.929688 -0.0703125 Z M 0.925781 -2.613281 C 1.214844 -2.613281 1.441406 -2.460938 1.601562 -2.15625 C 1.730469 -1.910156 1.792969 -1.625 1.792969 -1.304688 C 1.792969 -1.054688 1.753906 -0.816406 1.675781 -0.59375 C 1.527344 -0.175781 1.273438 0.0351562 0.90625 0.0351562 C 0.65625 0.0351562 0.453125 -0.078125 0.292969 -0.304688 C 0.121094 -0.546875 0.0351562 -0.875 0.0351562 -1.289062 C 0.0351562 -1.617188 0.0898438 -1.898438 0.207031 -2.132812 C 0.363281 -2.453125 0.601562 -2.613281 0.925781 -2.613281 Z "/>
</g>
<g id="glyph-0-9">
<path d="M 0.921875 -1.792969 C 1.015625 -1.792969 1.097656 -1.773438 1.175781 -1.734375 C 1.226562 -1.707031 1.273438 -1.671875 1.320312 -1.625 L 1.320312 -2.226562 C 1.320312 -2.304688 1.3125 -2.359375 1.296875 -2.386719 C 1.28125 -2.417969 1.238281 -2.429688 1.171875 -2.429688 C 1.15625 -2.429688 1.144531 -2.429688 1.132812 -2.429688 C 1.121094 -2.429688 1.097656 -2.425781 1.058594 -2.421875 L 1.058594 -2.484375 L 1.214844 -2.523438 C 1.269531 -2.539062 1.328125 -2.554688 1.382812 -2.570312 C 1.441406 -2.585938 1.492188 -2.605469 1.535156 -2.617188 C 1.554688 -2.625 1.589844 -2.636719 1.636719 -2.65625 L 1.648438 -2.652344 L 1.644531 -2.453125 C 1.640625 -2.378906 1.640625 -2.304688 1.640625 -2.230469 C 1.636719 -2.152344 1.636719 -2.078125 1.636719 -2 L 1.632812 -0.449219 C 1.632812 -0.367188 1.644531 -0.308594 1.664062 -0.277344 C 1.683594 -0.246094 1.738281 -0.226562 1.824219 -0.226562 C 1.839844 -0.226562 1.851562 -0.226562 1.867188 -0.230469 C 1.882812 -0.230469 1.894531 -0.230469 1.910156 -0.234375 L 1.910156 -0.171875 C 1.902344 -0.167969 1.808594 -0.136719 1.632812 -0.0742188 L 1.335938 0.0351562 L 1.320312 0.0195312 L 1.320312 -0.214844 C 1.25 -0.136719 1.191406 -0.0820312 1.136719 -0.0507812 C 1.042969 0.0078125 0.9375 0.0351562 0.816406 0.0351562 C 0.601562 0.0351562 0.425781 -0.046875 0.292969 -0.214844 C 0.160156 -0.378906 0.09375 -0.574219 0.09375 -0.792969 C 0.09375 -1.066406 0.171875 -1.300781 0.332031 -1.5 C 0.492188 -1.695312 0.6875 -1.792969 0.921875 -1.792969 Z M 0.992188 -0.167969 C 1.089844 -0.167969 1.171875 -0.199219 1.230469 -0.257812 C 1.292969 -0.316406 1.320312 -0.371094 1.320312 -0.421875 L 1.320312 -1.238281 C 1.320312 -1.402344 1.277344 -1.515625 1.191406 -1.585938 C 1.101562 -1.652344 1.015625 -1.6875 0.933594 -1.6875 C 0.773438 -1.6875 0.648438 -1.617188 0.558594 -1.476562 C 0.472656 -1.335938 0.425781 -1.160156 0.425781 -0.953125 C 0.425781 -0.75 0.472656 -0.566406 0.570312 -0.410156 C 0.664062 -0.25 0.804688 -0.167969 0.992188 -0.167969 Z "/>
</g>
<g id="glyph-0-10">
<path d="M 1.15625 -0.140625 C 1.355469 -0.140625 1.523438 -0.179688 1.65625 -0.257812 C 1.789062 -0.335938 1.859375 -0.480469 1.859375 -0.699219 C 1.859375 -0.917969 1.777344 -1.066406 1.621094 -1.148438 C 1.464844 -1.226562 1.265625 -1.265625 1.023438 -1.265625 C 0.960938 -1.265625 0.925781 -1.265625 0.910156 -1.265625 C 0.894531 -1.265625 0.867188 -1.265625 0.835938 -1.269531 L 0.835938 -0.300781 C 0.835938 -0.234375 0.855469 -0.191406 0.894531 -0.171875 C 0.929688 -0.152344 1.019531 -0.140625 1.15625 -0.140625 Z M 0.0664062 -0.0703125 C 0.222656 -0.078125 0.324219 -0.101562 0.371094 -0.144531 C 0.417969 -0.183594 0.441406 -0.277344 0.441406 -0.421875 L 0.441406 -2.152344 C 0.441406 -2.296875 0.417969 -2.386719 0.371094 -2.429688 C 0.324219 -2.46875 0.222656 -2.492188 0.0664062 -2.5 L 0.0664062 -2.574219 L 1.15625 -2.574219 C 1.46875 -2.574219 1.714844 -2.523438 1.898438 -2.421875 C 2.082031 -2.324219 2.171875 -2.152344 2.171875 -1.90625 C 2.171875 -1.722656 2.109375 -1.582031 1.980469 -1.488281 C 1.910156 -1.433594 1.800781 -1.390625 1.65625 -1.355469 C 1.835938 -1.3125 1.988281 -1.238281 2.113281 -1.136719 C 2.242188 -1.039062 2.304688 -0.898438 2.304688 -0.714844 C 2.304688 -0.410156 2.164062 -0.203125 1.882812 -0.0898438 C 1.734375 -0.03125 1.550781 0 1.335938 0 L 0.0664062 0 Z M 1.207031 -1.421875 C 1.335938 -1.425781 1.445312 -1.445312 1.53125 -1.484375 C 1.695312 -1.5625 1.777344 -1.699219 1.777344 -1.894531 C 1.777344 -2.125 1.683594 -2.28125 1.492188 -2.363281 C 1.386719 -2.40625 1.226562 -2.429688 1.015625 -2.429688 C 0.933594 -2.429688 0.882812 -2.421875 0.863281 -2.410156 C 0.84375 -2.394531 0.835938 -2.355469 0.835938 -2.292969 L 0.835938 -1.417969 Z "/>
</g>
<g id="glyph-0-11">
<path d="M 0.890625 -1.78125 C 1.070312 -1.78125 1.226562 -1.71875 1.359375 -1.597656 C 1.492188 -1.472656 1.5625 -1.296875 1.5625 -1.070312 L 0.355469 -1.070312 C 0.367188 -0.777344 0.433594 -0.5625 0.554688 -0.429688 C 0.675781 -0.296875 0.816406 -0.226562 0.980469 -0.226562 C 1.113281 -0.226562 1.226562 -0.261719 1.316406 -0.332031 C 1.410156 -0.402344 1.492188 -0.5 1.570312 -0.628906 L 1.636719 -0.605469 C 1.585938 -0.445312 1.488281 -0.296875 1.34375 -0.160156 C 1.203125 -0.0234375 1.027344 0.046875 0.824219 0.046875 C 0.585938 0.046875 0.402344 -0.0429688 0.269531 -0.222656 C 0.140625 -0.402344 0.0742188 -0.609375 0.0742188 -0.84375 C 0.0742188 -1.097656 0.152344 -1.320312 0.300781 -1.503906 C 0.453125 -1.6875 0.648438 -1.78125 0.890625 -1.78125 Z M 0.78125 -1.644531 C 0.636719 -1.644531 0.527344 -1.578125 0.449219 -1.449219 C 0.410156 -1.382812 0.378906 -1.296875 0.363281 -1.191406 L 1.164062 -1.191406 C 1.148438 -1.320312 1.125 -1.414062 1.09375 -1.476562 C 1.03125 -1.585938 0.925781 -1.644531 0.78125 -1.644531 Z "/>
</g>
<g id="glyph-0-12">
<path d="M 0.964844 -1.789062 C 1.125 -1.789062 1.261719 -1.75 1.375 -1.667969 C 1.492188 -1.585938 1.546875 -1.496094 1.546875 -1.398438 C 1.546875 -1.359375 1.535156 -1.320312 1.503906 -1.28125 C 1.476562 -1.246094 1.429688 -1.230469 1.371094 -1.230469 C 1.324219 -1.230469 1.285156 -1.242188 1.253906 -1.273438 C 1.21875 -1.304688 1.195312 -1.347656 1.179688 -1.40625 L 1.15625 -1.5 C 1.140625 -1.566406 1.113281 -1.613281 1.070312 -1.640625 C 1.027344 -1.667969 0.972656 -1.679688 0.90625 -1.679688 C 0.761719 -1.679688 0.640625 -1.617188 0.539062 -1.492188 C 0.441406 -1.367188 0.390625 -1.199219 0.390625 -0.988281 C 0.390625 -0.796875 0.445312 -0.625 0.554688 -0.476562 C 0.664062 -0.324219 0.8125 -0.246094 1 -0.246094 C 1.132812 -0.246094 1.246094 -0.289062 1.351562 -0.375 C 1.410156 -0.425781 1.472656 -0.503906 1.546875 -0.613281 L 1.601562 -0.578125 C 1.527344 -0.425781 1.453125 -0.308594 1.375 -0.21875 C 1.21875 -0.0507812 1.042969 0.0351562 0.839844 0.0351562 C 0.644531 0.0351562 0.46875 -0.0429688 0.316406 -0.199219 C 0.164062 -0.355469 0.0898438 -0.566406 0.0898438 -0.832031 C 0.0898438 -1.09375 0.171875 -1.320312 0.339844 -1.507812 C 0.503906 -1.695312 0.714844 -1.789062 0.964844 -1.789062 Z "/>
</g>
<g id="glyph-0-13">
<path d="M 1.105469 -0.957031 C 1.105469 -0.769531 1.082031 -0.589844 1.03125 -0.421875 C 0.984375 -0.253906 0.910156 -0.09375 0.816406 0.0546875 C 0.714844 0.214844 0.582031 0.363281 0.414062 0.5 C 0.304688 0.59375 0.214844 0.65625 0.136719 0.691406 L 0.101562 0.628906 C 0.296875 0.480469 0.441406 0.332031 0.53125 0.175781 C 0.691406 -0.0976562 0.769531 -0.457031 0.769531 -0.90625 C 0.769531 -1.269531 0.734375 -1.566406 0.660156 -1.796875 C 0.558594 -2.125 0.371094 -2.378906 0.101562 -2.566406 L 0.152344 -2.628906 C 0.351562 -2.515625 0.539062 -2.347656 0.710938 -2.125 C 0.976562 -1.777344 1.105469 -1.386719 1.105469 -0.957031 Z "/>
</g>
</g>
<image id="source-251" x="0" y="0" width="0" height="0"/>
<mask id="mask-0">
<use xlink:href="#source-251"/>
</mask>
</defs>
<g fill="rgb(98.823529%, 38.431373%, 33.333333%)" fill-opacity="1">
<use xlink:href="#glyph-0-0" x="30" y="22.916992"/>
<use xlink:href="#glyph-0-1" x="32" y="22.916992"/>
<use xlink:href="#glyph-0-2" x="33" y="22.916992"/>
<use xlink:href="#glyph-0-3" x="34" y="22.916992"/>
<use xlink:href="#glyph-0-4" x="37" y="22.916992"/>
<use xlink:href="#glyph-0-5" x="38" y="22.916992"/>
<use xlink:href="#glyph-0-6" x="39" y="22.916992"/>
<use xlink:href="#glyph-0-7" x="40" y="22.916992"/>
<use xlink:href="#glyph-0-8" x="42" y="22.916992"/>
<use xlink:href="#glyph-0-4" x="44" y="22.916992"/>
<use xlink:href="#glyph-0-9" x="45" y="22.916992"/>
<use xlink:href="#glyph-0-10" x="47" y="22.916992"/>
<use xlink:href="#glyph-0-1" x="50" y="22.916992"/>
<use xlink:href="#glyph-0-9" x="51" y="22.916992"/>
<use xlink:href="#glyph-0-11" x="53" y="22.916992"/>
<use xlink:href="#glyph-0-12" x="55" y="22.916992"/>
<use xlink:href="#glyph-0-13" x="57" y="22.916992"/>
</g>
</svg>
