<?xml version="1.0" encoding="UTF-8"?>
<svg xmlns="http://www.w3.org/2000/svg" xmlns:xlink="http://www.w3.org/1999/xlink" width="854" height="480" viewBox="0 0 854 480">
<defs>
<g>
<g id="glyph-0-0">
<path d="M 0.714844 -1.652344 C 0.714844 -1.125 0.820312 -0.738281 1.023438 -0.488281 C 1.230469 -0.234375 1.484375 -0.109375 1.789062 -0.109375 C 2.082031 -0.109375 2.332031 -0.230469 2.542969 -0.476562 C 2.75 -0.722656 2.855469 -1.113281 2.855469 -1.652344 C 2.855469 -2.199219 2.75 -2.59375 2.539062 -2.835938 C 2.328125 -3.078125 2.078125 -3.199219 1.789062 -3.199219 C 1.488281 -3.199219 1.234375 -3.074219 1.027344 -2.820312 C 0.820312 -2.570312 0.714844 -2.179688 0.714844 -1.652344 Z M 0.148438 -1.652344 C 0.148438 -2.1875 0.316406 -2.613281 0.652344 -2.9375 C 0.960938 -3.230469 1.335938 -3.378906 1.789062 -3.378906 C 2.230469 -3.378906 2.605469 -3.234375 2.914062 -2.941406 C 3.253906 -2.621094 3.425781 -2.191406 3.425781 -1.652344 C 3.425781 -1.226562 3.316406 -0.867188 3.101562 -0.570312 C 2.867188 -0.253906 2.535156 -0.0546875 2.105469 0.03125 C 2.304688 0.320312 2.550781 0.527344 2.835938 0.648438 C 2.996094 0.71875 3.214844 0.769531 3.488281 0.800781 L 3.488281 0.890625 L 3.285156 0.890625 C 3.015625 0.890625 2.773438 0.867188 2.566406 0.824219 C 2.355469 0.78125 2.164062 0.714844 1.996094 0.625 C 1.824219 0.539062 1.664062 0.414062 1.519531 0.257812 C 1.375 0.101562 1.292969 0.0195312 1.277344 0.0117188 L 1.214844 -0.015625 C 0.9375 -0.144531 0.722656 -0.292969 0.570312 -0.457031 C 0.289062 -0.761719 0.148438 -1.160156 0.148438 -1.652344 Z "/>
</g>
<g id="glyph-0-1">
<rect x="0" y="0" width="0" height="0" mask="url(#mask-0)"/>
</g>
<g id="glyph-0-2">
<path d="M 2.671875 -0.929688 L 2.671875 -0.589844 L 0.148438 -0.589844 L 0.148438 -0.929688 Z M 2.671875 -1.9375 L 2.671875 -1.597656 L 0.148438 -1.597656 L 0.148438 -1.9375 Z "/>
</g>
<g id="glyph-0-3">
<path d="M 1.480469 -3.355469 C 1.484375 -3.347656 1.488281 -3.339844 1.492188 -3.335938 C 1.492188 -3.332031 1.492188 -3.324219 1.492188 -3.308594 L 1.492188 -0.367188 C 1.492188 -0.242188 1.523438 -0.164062 1.59375 -0.128906 C 1.660156 -0.09375 1.78125 -0.0742188 1.964844 -0.0703125 L 1.964844 0 L 0.589844 0 L 0.589844 -0.0742188 C 0.785156 -0.0820312 0.914062 -0.109375 0.972656 -0.152344 C 1.035156 -0.195312 1.0625 -0.292969 1.0625 -0.4375 L 1.0625 -2.699219 C 1.0625 -2.777344 1.054688 -2.835938 1.035156 -2.878906 C 1.015625 -2.917969 0.972656 -2.9375 0.90625 -2.9375 C 0.867188 -2.9375 0.8125 -2.925781 0.742188 -2.902344 C 0.675781 -2.878906 0.613281 -2.855469 0.554688 -2.828125 L 0.554688 -2.898438 L 1.449219 -3.355469 Z "/>
</g>
<g id="glyph-0-4">
<path d="M 1.195312 -0.0898438 C 1.433594 -0.0898438 1.601562 -0.222656 1.6875 -0.484375 C 1.777344 -0.746094 1.824219 -1.125 1.824219 -1.621094 C 1.824219 -2.015625 1.796875 -2.332031 1.742188 -2.570312 C 1.640625 -3.007812 1.453125 -3.226562 1.175781 -3.226562 C 0.898438 -3.226562 0.710938 -3 0.609375 -2.546875 C 0.554688 -2.308594 0.527344 -1.992188 0.527344 -1.597656 C 0.527344 -1.226562 0.554688 -0.933594 0.609375 -0.710938 C 0.714844 -0.296875 0.910156 -0.0898438 1.195312 -0.0898438 Z M 1.1875 -3.359375 C 1.5625 -3.359375 1.855469 -3.164062 2.0625 -2.769531 C 2.226562 -2.453125 2.308594 -2.089844 2.308594 -1.675781 C 2.308594 -1.351562 2.257812 -1.046875 2.15625 -0.761719 C 1.964844 -0.222656 1.636719 0.046875 1.167969 0.046875 C 0.847656 0.046875 0.582031 -0.0976562 0.375 -0.390625 C 0.15625 -0.703125 0.0429688 -1.125 0.0429688 -1.65625 C 0.0429688 -2.078125 0.117188 -2.4375 0.265625 -2.742188 C 0.464844 -3.152344 0.773438 -3.359375 1.1875 -3.359375 Z "/>
</g>
</g>
<image id="source-142" x="0" y="0" width="0" height="0"/>
<mask id="mask-0">
<use xlink:href="#source-142"/>
</mask>
</defs>
<g fill="rgb(96.862745%, 85.098039%, 43.529412%)" fill-opacity="1">
<use xlink:href="#glyph-0-0" x="30" y="23.75"/>
<use xlink:href="#glyph-0-1" x="34" y="23.75"/>
<use xlink:href="#glyph-0-2" x="35" y="23.75"/>
<use xlink:href="#glyph-0-1" x="38" y="23.75"/>
<use xlink:href="#glyph-0-3" x="39" y="23.75"/>
<use xlink:href="#glyph-0-4" x="42" y="23.75"/>
</g>
</svg>
