<?xml version="1.0" encoding="UTF-8"?>
<svg xmlns="http://www.w3.org/2000/svg" xmlns:xlink="http://www.w3.org/1999/xlink" width="854" height="480" viewBox="0 0 854 480">
<defs>
<g>
<g id="glyph-0-0">
<path d="M 1.410156 -3.308594 L 1.410156 -3.214844 C 1.285156 -3.214844 1.199219 -3.207031 1.15625 -3.191406 C 1.074219 -3.164062 1.035156 -3.113281 1.035156 -3.03125 C 1.035156 -2.992188 1.050781 -2.933594 1.078125 -2.859375 C 1.105469 -2.789062 1.160156 -2.664062 1.238281 -2.492188 L 2.019531 -0.75 L 2.730469 -2.636719 C 2.761719 -2.71875 2.785156 -2.789062 2.800781 -2.847656 C 2.816406 -2.902344 2.824219 -2.949219 2.824219 -2.984375 C 2.824219 -3.082031 2.78125 -3.148438 2.699219 -3.179688 C 2.652344 -3.199219 2.570312 -3.210938 2.457031 -3.214844 L 2.457031 -3.308594 L 3.480469 -3.308594 L 3.480469 -3.222656 C 3.375 -3.207031 3.296875 -3.179688 3.246094 -3.136719 C 3.171875 -3.074219 3.09375 -2.945312 3.019531 -2.753906 L 1.914062 0.0585938 L 1.839844 0.0585938 L 0.605469 -2.691406 C 0.5 -2.921875 0.417969 -3.066406 0.355469 -3.125 C 0.292969 -3.183594 0.199219 -3.214844 0.0820312 -3.222656 L 0.0820312 -3.308594 Z "/>
</g>
<g id="glyph-0-1">
<path d="M 0.257812 -0.769531 L 0.339844 -0.769531 C 0.375 -0.582031 0.425781 -0.441406 0.492188 -0.34375 C 0.605469 -0.160156 0.773438 -0.0703125 0.992188 -0.0703125 C 1.113281 -0.0703125 1.210938 -0.101562 1.28125 -0.167969 C 1.351562 -0.238281 1.386719 -0.324219 1.386719 -0.433594 C 1.386719 -0.5 1.367188 -0.566406 1.324219 -0.628906 C 1.285156 -0.691406 1.214844 -0.753906 1.109375 -0.816406 L 0.835938 -0.972656 C 0.636719 -1.078125 0.488281 -1.1875 0.394531 -1.296875 C 0.300781 -1.40625 0.253906 -1.535156 0.253906 -1.683594 C 0.253906 -1.863281 0.320312 -2.015625 0.449219 -2.132812 C 0.578125 -2.25 0.742188 -2.308594 0.941406 -2.308594 C 1.027344 -2.308594 1.121094 -2.289062 1.222656 -2.257812 C 1.328125 -2.226562 1.386719 -2.210938 1.398438 -2.210938 C 1.429688 -2.210938 1.449219 -2.214844 1.460938 -2.222656 C 1.476562 -2.230469 1.488281 -2.242188 1.496094 -2.261719 L 1.554688 -2.261719 L 1.570312 -1.578125 L 1.496094 -1.578125 C 1.464844 -1.738281 1.421875 -1.859375 1.363281 -1.949219 C 1.261719 -2.109375 1.117188 -2.191406 0.929688 -2.191406 C 0.8125 -2.191406 0.722656 -2.15625 0.660156 -2.085938 C 0.59375 -2.015625 0.5625 -1.933594 0.5625 -1.839844 C 0.5625 -1.691406 0.671875 -1.558594 0.898438 -1.441406 L 1.21875 -1.265625 C 1.566406 -1.078125 1.742188 -0.859375 1.742188 -0.609375 C 1.742188 -0.417969 1.667969 -0.257812 1.523438 -0.136719 C 1.378906 -0.015625 1.191406 0.046875 0.960938 0.046875 C 0.863281 0.046875 0.75 0.03125 0.628906 -0.00390625 C 0.503906 -0.0351562 0.429688 -0.0507812 0.40625 -0.0507812 C 0.386719 -0.0507812 0.371094 -0.0429688 0.355469 -0.03125 C 0.339844 -0.015625 0.332031 0 0.320312 0.0195312 L 0.257812 0.0195312 Z "/>
</g>
</g>
</defs>
<g fill="rgb(100%, 100%, 100%)" fill-opacity="1">
<use xlink:href="#glyph-0-0" x="30" y="23.75"/>
<use xlink:href="#glyph-0-1" x="34" y="23.75"/>
<use xlink:href="#glyph-0-1" x="36" y="23.75"/>
</g>
</svg>
