<?xml version="1.0" encoding="UTF-8"?>
<svg xmlns="http://www.w3.org/2000/svg" xmlns:xlink="http://www.w3.org/1999/xlink" width="854" height="480" viewBox="0 0 854 480">
<defs>
<g>
<g id="glyph-0-0">
<path d="M 1.75 -1.652344 C 1.523438 -1.578125 1.332031 -1.492188 1.183594 -1.402344 C 0.898438 -1.226562 0.753906 -1.023438 0.753906 -0.800781 C 0.753906 -0.617188 0.816406 -0.484375 0.933594 -0.398438 C 1.011719 -0.34375 1.097656 -0.316406 1.195312 -0.316406 C 1.324219 -0.316406 1.449219 -0.351562 1.570312 -0.425781 C 1.691406 -0.5 1.75 -0.59375 1.75 -0.707031 Z M 0.222656 -0.59375 C 0.222656 -0.882812 0.367188 -1.121094 0.65625 -1.316406 C 0.839844 -1.433594 1.203125 -1.597656 1.75 -1.800781 L 1.75 -2.054688 C 1.75 -2.257812 1.730469 -2.398438 1.691406 -2.480469 C 1.625 -2.613281 1.484375 -2.679688 1.269531 -2.679688 C 1.167969 -2.679688 1.074219 -2.652344 0.980469 -2.601562 C 0.890625 -2.546875 0.84375 -2.472656 0.84375 -2.382812 C 0.84375 -2.359375 0.847656 -2.316406 0.859375 -2.261719 C 0.871094 -2.203125 0.875 -2.167969 0.875 -2.152344 C 0.875 -2.039062 0.835938 -1.960938 0.765625 -1.917969 C 0.722656 -1.890625 0.671875 -1.878906 0.613281 -1.878906 C 0.523438 -1.878906 0.457031 -1.910156 0.410156 -1.96875 C 0.363281 -2.027344 0.335938 -2.089844 0.335938 -2.164062 C 0.335938 -2.300781 0.421875 -2.449219 0.59375 -2.601562 C 0.765625 -2.753906 1.019531 -2.828125 1.351562 -2.828125 C 1.738281 -2.828125 2 -2.703125 2.136719 -2.453125 C 2.210938 -2.316406 2.246094 -2.117188 2.246094 -1.851562 L 2.246094 -0.65625 C 2.246094 -0.539062 2.253906 -0.460938 2.269531 -0.417969 C 2.296875 -0.339844 2.351562 -0.300781 2.429688 -0.300781 C 2.476562 -0.300781 2.515625 -0.308594 2.546875 -0.320312 C 2.574219 -0.335938 2.625 -0.371094 2.699219 -0.421875 L 2.699219 -0.269531 C 2.636719 -0.191406 2.566406 -0.128906 2.496094 -0.078125 C 2.382812 -0.00390625 2.269531 0.0351562 2.152344 0.0351562 C 2.019531 0.0351562 1.921875 -0.0078125 1.859375 -0.09375 C 1.800781 -0.183594 1.765625 -0.289062 1.761719 -0.410156 C 1.609375 -0.277344 1.480469 -0.179688 1.371094 -0.117188 C 1.191406 -0.0078125 1.019531 0.0429688 0.855469 0.0429688 C 0.683594 0.0429688 0.535156 -0.015625 0.410156 -0.136719 C 0.285156 -0.257812 0.222656 -0.410156 0.222656 -0.59375 Z "/>
</g>
<g id="glyph-0-1">
<path d="M 0.125 -0.0820312 C 0.308594 -0.101562 0.4375 -0.140625 0.5 -0.195312 C 0.566406 -0.253906 0.601562 -0.363281 0.601562 -0.527344 L 0.601562 -3.441406 C 0.601562 -3.574219 0.589844 -3.664062 0.566406 -3.714844 C 0.527344 -3.796875 0.445312 -3.839844 0.324219 -3.839844 C 0.296875 -3.839844 0.265625 -3.835938 0.234375 -3.832031 C 0.203125 -3.824219 0.160156 -3.816406 0.109375 -3.804688 L 0.109375 -3.902344 C 0.378906 -3.972656 0.703125 -4.070312 1.078125 -4.1875 C 1.09375 -4.1875 1.101562 -4.183594 1.105469 -4.171875 C 1.109375 -4.160156 1.109375 -4.132812 1.109375 -4.09375 L 1.109375 -0.515625 C 1.109375 -0.34375 1.140625 -0.230469 1.199219 -0.179688 C 1.257812 -0.128906 1.382812 -0.0976562 1.570312 -0.0820312 L 1.570312 0 L 0.125 0 Z "/>
</g>
<g id="glyph-0-2">
<path d="M 0.976562 -0.550781 C 1.027344 -0.414062 1.105469 -0.3125 1.207031 -0.246094 C 1.308594 -0.179688 1.429688 -0.144531 1.570312 -0.144531 C 1.785156 -0.144531 1.96875 -0.253906 2.121094 -0.46875 C 2.273438 -0.679688 2.347656 -0.980469 2.347656 -1.359375 C 2.347656 -1.726562 2.269531 -2 2.109375 -2.179688 C 1.953125 -2.363281 1.769531 -2.453125 1.558594 -2.453125 C 1.414062 -2.453125 1.277344 -2.40625 1.15625 -2.316406 C 1.035156 -2.226562 0.976562 -2.136719 0.976562 -2.050781 Z M 0.0273438 1.230469 C 0.214844 1.21875 0.332031 1.179688 0.382812 1.113281 C 0.433594 1.046875 0.460938 0.9375 0.460938 0.792969 L 0.460938 -2.070312 C 0.460938 -2.222656 0.441406 -2.320312 0.402344 -2.363281 C 0.367188 -2.40625 0.296875 -2.425781 0.195312 -2.425781 C 0.175781 -2.425781 0.15625 -2.425781 0.136719 -2.421875 C 0.117188 -2.421875 0.0898438 -2.417969 0.0546875 -2.410156 L 0.0546875 -2.507812 L 0.335938 -2.601562 C 0.347656 -2.605469 0.546875 -2.671875 0.9375 -2.808594 C 0.945312 -2.808594 0.953125 -2.804688 0.960938 -2.792969 C 0.964844 -2.785156 0.964844 -2.773438 0.964844 -2.761719 L 0.964844 -2.359375 C 1.097656 -2.492188 1.214844 -2.589844 1.3125 -2.652344 C 1.492188 -2.765625 1.675781 -2.820312 1.863281 -2.820312 C 2.140625 -2.820312 2.375 -2.703125 2.574219 -2.46875 C 2.773438 -2.234375 2.871094 -1.914062 2.871094 -1.507812 C 2.871094 -1.109375 2.75 -0.75 2.511719 -0.425781 C 2.273438 -0.101562 1.976562 0.0585938 1.617188 0.0585938 C 1.503906 0.0585938 1.410156 0.046875 1.328125 0.0195312 C 1.199219 -0.0234375 1.082031 -0.101562 0.976562 -0.210938 L 0.976562 0.765625 C 0.976562 0.964844 1.007812 1.089844 1.074219 1.132812 C 1.140625 1.179688 1.28125 1.210938 1.503906 1.226562 L 1.503906 1.332031 L 0.0273438 1.332031 Z "/>
</g>
<g id="glyph-0-3">
<path d="M 0.0546875 -0.0820312 C 0.21875 -0.105469 0.324219 -0.144531 0.375 -0.203125 C 0.425781 -0.261719 0.449219 -0.402344 0.449219 -0.621094 L 0.449219 -3.484375 C 0.449219 -3.597656 0.4375 -3.679688 0.40625 -3.730469 C 0.378906 -3.785156 0.308594 -3.808594 0.195312 -3.808594 C 0.175781 -3.808594 0.152344 -3.808594 0.132812 -3.804688 C 0.113281 -3.800781 0.0898438 -3.800781 0.0625 -3.796875 L 0.0625 -3.902344 C 0.148438 -3.929688 0.257812 -3.960938 0.386719 -3.996094 C 0.515625 -4.03125 0.605469 -4.058594 0.652344 -4.074219 L 0.941406 -4.164062 L 0.945312 -4.144531 L 0.945312 -2.3125 C 1.070312 -2.457031 1.183594 -2.5625 1.28125 -2.628906 C 1.457031 -2.746094 1.644531 -2.808594 1.847656 -2.808594 C 2.167969 -2.808594 2.390625 -2.671875 2.507812 -2.402344 C 2.570312 -2.257812 2.601562 -2.070312 2.601562 -1.835938 L 2.601562 -0.621094 C 2.601562 -0.410156 2.625 -0.273438 2.675781 -0.207031 C 2.722656 -0.144531 2.824219 -0.101562 2.976562 -0.0820312 L 2.976562 0 L 1.683594 0 L 1.683594 -0.0820312 C 1.855469 -0.105469 1.96875 -0.148438 2.015625 -0.207031 C 2.066406 -0.265625 2.089844 -0.402344 2.089844 -0.621094 L 2.089844 -1.828125 C 2.089844 -2.023438 2.058594 -2.179688 1.996094 -2.296875 C 1.929688 -2.417969 1.808594 -2.476562 1.628906 -2.476562 C 1.472656 -2.476562 1.324219 -2.421875 1.179688 -2.308594 C 1.035156 -2.199219 0.960938 -2.125 0.960938 -2.089844 L 0.960938 -0.621094 C 0.960938 -0.398438 0.988281 -0.257812 1.039062 -0.203125 C 1.089844 -0.148438 1.199219 -0.105469 1.371094 -0.0820312 L 1.371094 0 L 0.0546875 0 Z "/>
</g>
<g id="glyph-0-4">
<rect x="0" y="0" width="0" height="0" mask="url(#mask-0)"/>
</g>
<g id="glyph-0-5">
<path d="M 3.265625 -1.136719 L 3.265625 -0.71875 L 0.183594 -0.71875 L 0.183594 -1.136719 Z M 3.265625 -2.367188 L 3.265625 -1.953125 L 0.183594 -1.953125 L 0.183594 -2.367188 Z "/>
</g>
<g id="glyph-0-6">
<path d="M 1.214844 -2.089844 C 1.652344 -2.105469 1.96875 -2.152344 2.15625 -2.230469 C 2.480469 -2.363281 2.644531 -2.613281 2.644531 -2.980469 C 2.644531 -3.335938 2.5 -3.578125 2.207031 -3.707031 C 2.050781 -3.777344 1.847656 -3.808594 1.589844 -3.808594 C 1.417969 -3.808594 1.3125 -3.796875 1.273438 -3.773438 C 1.234375 -3.75 1.214844 -3.691406 1.214844 -3.597656 Z M 0.0703125 -0.109375 C 0.304688 -0.132812 0.449219 -0.179688 0.507812 -0.246094 C 0.566406 -0.316406 0.59375 -0.480469 0.59375 -0.734375 L 0.59375 -3.378906 C 0.59375 -3.59375 0.5625 -3.734375 0.496094 -3.800781 C 0.433594 -3.867188 0.289062 -3.910156 0.0703125 -3.929688 L 0.0703125 -4.042969 L 1.761719 -4.042969 C 2.113281 -4.042969 2.40625 -3.996094 2.640625 -3.910156 C 3.085938 -3.738281 3.308594 -3.429688 3.308594 -2.976562 C 3.308594 -2.671875 3.210938 -2.4375 3.011719 -2.273438 C 2.8125 -2.109375 2.546875 -2.003906 2.203125 -1.953125 L 3.464844 -0.402344 C 3.542969 -0.308594 3.617188 -0.238281 3.695312 -0.195312 C 3.773438 -0.152344 3.875 -0.121094 3.996094 -0.109375 L 3.996094 0 L 3.011719 0 L 1.554688 -1.878906 L 1.214844 -1.863281 L 1.214844 -0.664062 C 1.214844 -0.4375 1.25 -0.292969 1.316406 -0.230469 C 1.386719 -0.171875 1.535156 -0.128906 1.765625 -0.109375 L 1.765625 0 L 0.0703125 0 Z "/>
</g>
<g id="glyph-0-7">
<path d="M 1.371094 -4.128906 L 1.667969 -4.128906 L 0.316406 0.101562 L 0.0117188 0.101562 Z "/>
</g>
<g id="glyph-0-8">
<path d="M 0.28125 -1.535156 C 0.28125 -2.226562 0.488281 -2.832031 0.902344 -3.355469 C 1.15625 -3.675781 1.457031 -3.933594 1.800781 -4.128906 L 1.859375 -4.03125 C 1.539062 -3.777344 1.308594 -3.527344 1.171875 -3.289062 C 0.933594 -2.867188 0.8125 -2.308594 0.8125 -1.609375 C 0.8125 -1.09375 0.855469 -0.667969 0.949219 -0.332031 C 1.109375 0.257812 1.414062 0.699219 1.859375 0.992188 L 1.78125 1.089844 C 1.535156 0.972656 1.273438 0.742188 0.988281 0.398438 C 0.515625 -0.167969 0.28125 -0.8125 0.28125 -1.535156 Z "/>
</g>
<g id="glyph-0-9">
<path d="M 0.183594 -0.0703125 C 0.910156 -0.824219 1.402344 -1.378906 1.664062 -1.734375 C 1.925781 -2.085938 2.054688 -2.433594 2.054688 -2.769531 C 2.054688 -3.0625 1.976562 -3.289062 1.816406 -3.441406 C 1.65625 -3.59375 1.46875 -3.671875 1.246094 -3.671875 C 0.972656 -3.671875 0.753906 -3.574219 0.585938 -3.375 C 0.492188 -3.265625 0.402344 -3.097656 0.316406 -2.871094 L 0.1875 -2.898438 C 0.289062 -3.355469 0.457031 -3.671875 0.695312 -3.851562 C 0.933594 -4.027344 1.1875 -4.117188 1.457031 -4.117188 C 1.792969 -4.117188 2.066406 -4.011719 2.273438 -3.800781 C 2.480469 -3.589844 2.585938 -3.328125 2.585938 -3.023438 C 2.585938 -2.695312 2.472656 -2.382812 2.25 -2.078125 C 2.023438 -1.777344 1.535156 -1.238281 0.785156 -0.464844 L 2.152344 -0.464844 C 2.34375 -0.464844 2.480469 -0.488281 2.558594 -0.535156 C 2.636719 -0.582031 2.722656 -0.691406 2.820312 -0.867188 L 2.898438 -0.832031 L 2.566406 0 L 0.183594 0 Z "/>
</g>
<g id="glyph-0-10">
<path d="M 0.0703125 -0.109375 C 0.292969 -0.132812 0.4375 -0.175781 0.503906 -0.230469 C 0.570312 -0.289062 0.605469 -0.429688 0.605469 -0.664062 L 0.605469 -3.378906 C 0.605469 -3.597656 0.574219 -3.738281 0.507812 -3.804688 C 0.441406 -3.871094 0.296875 -3.914062 0.0703125 -3.929688 L 0.0703125 -4.042969 L 1.796875 -4.042969 L 1.796875 -3.929688 C 1.570312 -3.917969 1.421875 -3.878906 1.34375 -3.820312 C 1.265625 -3.757812 1.230469 -3.625 1.230469 -3.421875 L 1.230469 -0.484375 C 1.230469 -0.417969 1.242188 -0.367188 1.261719 -0.328125 C 1.285156 -0.289062 1.335938 -0.261719 1.414062 -0.253906 C 1.460938 -0.246094 1.507812 -0.242188 1.558594 -0.242188 C 1.609375 -0.238281 1.703125 -0.238281 1.84375 -0.238281 C 2.386719 -0.238281 2.753906 -0.285156 2.945312 -0.371094 C 3.136719 -0.460938 3.320312 -0.691406 3.5 -1.058594 L 3.65625 -1.058594 L 3.355469 0 L 0.0703125 0 Z "/>
</g>
<g id="glyph-0-11">
<path d="M 1.738281 -1.503906 C 1.738281 -1.207031 1.699219 -0.925781 1.625 -0.664062 C 1.546875 -0.398438 1.433594 -0.148438 1.28125 0.0859375 C 1.125 0.335938 0.914062 0.570312 0.652344 0.789062 C 0.480469 0.929688 0.335938 1.03125 0.21875 1.089844 L 0.160156 0.992188 C 0.46875 0.757812 0.691406 0.519531 0.832031 0.277344 C 1.082031 -0.152344 1.207031 -0.71875 1.207031 -1.425781 C 1.207031 -1.996094 1.152344 -2.464844 1.035156 -2.824219 C 0.875 -3.335938 0.582031 -3.738281 0.160156 -4.03125 L 0.238281 -4.128906 C 0.554688 -3.953125 0.84375 -3.691406 1.117188 -3.335938 C 1.53125 -2.789062 1.738281 -2.179688 1.738281 -1.503906 Z "/>
</g>
</g>
<image id="source-57" x="0" y="0" width="0" height="0"/>
<mask id="mask-0">
<use xlink:href="#source-57"/>
</mask>
</defs>
<g fill="rgb(100%, 100%, 100%)" fill-opacity="1">
<use xlink:href="#glyph-0-0" x="30" y="24.583008"/>
<use xlink:href="#glyph-0-1" x="33" y="24.583008"/>
<use xlink:href="#glyph-0-2" x="35" y="24.583008"/>
<use xlink:href="#glyph-0-3" x="38" y="24.583008"/>
<use xlink:href="#glyph-0-0" x="41" y="24.583008"/>
<use xlink:href="#glyph-0-4" x="44" y="24.583008"/>
<use xlink:href="#glyph-0-5" x="46" y="24.583008"/>
<use xlink:href="#glyph-0-4" x="49" y="24.583008"/>
<use xlink:href="#glyph-0-6" x="51" y="24.583008"/>
<use xlink:href="#glyph-0-7" x="55" y="24.583008"/>
<use xlink:href="#glyph-0-8" x="57" y="24.583008"/>
<use xlink:href="#glyph-0-9" x="59" y="24.583008"/>
<use xlink:href="#glyph-0-10" x="62" y="24.583008"/>
<use xlink:href="#glyph-0-11" x="66" y="24.583008"/>
</g>
</svg>
